<svg xmlns="http://www.w3.org/2000/svg" xmlns:xlink="http://www.w3.org/1999/xlink" width="105" height="105" viewBox="0 0 105 105"><defs><linearGradient id="a" x1="0.5" x2="0.5" y2="1" gradientUnits="objectBoundingBox"><stop offset="0" stop-color="#284266"/><stop offset="1" stop-color="#022648"/></linearGradient></defs><g transform="translate(-275.317 -681.952)"><g transform="translate(275.817 682.952)"><g transform="translate(0 0)"><circle cx="51.5" cy="51.5" r="51.5" transform="translate(0.5)" stroke="#f89963" stroke-width="2" fill="url(#a)"/></g></g><g transform="translate(301.904 706.721)"><g transform="translate(0 0)"><g transform="translate(25.566 12.077)"><line x2="21.094" transform="translate(0 7.856)" fill="none" stroke="#f89963" stroke-width="2"/><g transform="translate(19.087)"><path d="M396.587,749.782a3.773,3.773,0,1,1,3.772-3.772A3.772,3.772,0,0,1,396.587,749.782Z" transform="translate(-392.815 -742.237)" fill="none" stroke="#f89963" stroke-width="2"/><path d="M396.587,762.539a3.773,3.773,0,1,1,3.773-3.773A3.773,3.773,0,0,1,396.587,762.539Z" transform="translate(-392.815 -747.281)" fill="none" stroke="#f89963" stroke-width="2"/><path d="M407.957,756.161a3.773,3.773,0,1,1,3.772-3.772A3.773,3.773,0,0,1,407.957,756.161Z" transform="translate(-397.31 -744.759)" fill="none" stroke="#f89963" stroke-width="2"/></g></g><path d="M366.051,780.779a11.385,11.385,0,0,1,1.69-5.714,37.389,37.389,0,0,0,6.786-13.695" transform="translate(-337.58 -737.725)" fill="none" stroke="#f89963" stroke-width="2"/><path d="M356.445,738.119a18.862,18.862,0,0,0-37.483,3c0,.617.442,9.327,7.556,18.481a11.3,11.3,0,0,1,1.66,5.714" transform="translate(-318.962 -722.263)" fill="none" stroke="#f89963" stroke-width="2"/><g transform="translate(6.597 43.277)"><line x2="24.526" fill="none" stroke="#f89963" stroke-width="2"/><line x2="24.526" transform="translate(0 4.764)" fill="none" stroke="#f89963" stroke-width="2"/><line x2="24.526" transform="translate(0 9.529)" fill="none" stroke="#f89963" stroke-width="2"/><line x2="17.856" transform="translate(3.335 14.294)" fill="none" stroke="#f89963" stroke-width="2"/><line y1="9.054" transform="translate(2.846 0.253)" fill="none" stroke="#f89963" stroke-width="2"/></g><path d="M351.552,745.695a4.036,4.036,0,1,0-6.1,3.458l-.914,9.941H350.5l-.917-9.941A4.024,4.024,0,0,0,351.552,745.695Z" transform="translate(-328.656 -729.932)" fill="none" stroke="#f89963" stroke-width="2"/><line y2="7.054" transform="translate(28.187 19.69)" fill="none" stroke="#f89963" stroke-width="2"/><line y2="3.83" transform="translate(32.419 19.69)" fill="none" stroke="#f89963" stroke-width="2"/></g></g></g></svg>