<svg xmlns="http://www.w3.org/2000/svg" width="80" height="80" viewBox="0 0 80 80"><g transform="translate(-661.395 -228.678)"><g transform="translate(661.395 228.678)"><circle cx="40" cy="40" r="40" transform="translate(0 0)" fill="#022648"/></g><g transform="translate(676.916 248.284)"><g transform="translate(0)"><g transform="translate(16.853 7.335)"><path d="M731.973,294.422c-.015,1.187-.078,2.421-.2,3.686a40.834,40.834,0,0,1-1.651,8.431A9.009,9.009,0,0,1,735,312.117a11.392,11.392,0,0,1,.672,3.695H737.1v-.073" transform="translate(-730.123 -290.395)" fill="none" stroke="#f89963" stroke-width="2"/><path d="M746.356,315.738v.073h1.428a11.428,11.428,0,0,1,.673-3.695,9.008,9.008,0,0,1,4.88-5.578,40.738,40.738,0,0,1-1.654-8.431c-.12-1.266-.183-2.5-.2-3.686" transform="translate(-738.71 -290.395)" fill="none" stroke="#f89963" stroke-width="2"/><rect width="12.998" height="3.755" transform="translate(0.814)" fill="none" stroke="#f89963" stroke-width="2"/><line x1="12.998" transform="translate(0.814)" fill="none" stroke="#f89963" stroke-width="2"/><line y1="12.012" transform="translate(7.313 13.428)" fill="none" stroke="#f89963" stroke-width="2"/><circle cx="1.531" cy="1.531" r="1.531" transform="translate(5.782 10.524)" fill="none" stroke="#f89963" stroke-width="2"/></g><path d="M720.247,271.693a4.605,4.605,0,0,0-1.237,4.012,4.606,4.606,0,0,0,5.215-5.355A4.607,4.607,0,0,0,720.247,271.693Z" transform="translate(-707.356 -270.301)" fill="none" stroke="#f89963" stroke-width="2"/><path d="M705.238,281.928a2.291,2.291,0,1,0,1.515-3.788A4.468,4.468,0,0,0,705.238,281.928Z" transform="translate(-700.096 -274.448)" fill="none" stroke="#f89963" stroke-width="2"/><path d="M696.479,301.975a2.292,2.292,0,1,0-.228-4.074A4.47,4.47,0,0,0,696.479,301.975Z" transform="translate(-695.15 -284.9)" fill="none" stroke="#f89963" stroke-width="2"/><path d="M696.272,324.1a4.47,4.47,0,0,0,4.044.536,4.475,4.475,0,0,0-5.972-4.132A4.478,4.478,0,0,0,696.272,324.1Z" transform="translate(-694.345 -296.721)" fill="none" stroke="#f89963" stroke-width="2"/><path d="M705.169,343.529a4.472,4.472,0,0,0,3.892-1.223,4.475,4.475,0,0,0-7.159-1.221A4.474,4.474,0,0,0,705.169,343.529Z" transform="translate(-698.342 -307.062)" fill="none" stroke="#f89963" stroke-width="2"/><path d="M721.93,356.6a4.473,4.473,0,0,0,3.011-2.754,4.475,4.475,0,0,0-7,1.919A4.473,4.473,0,0,0,721.93,356.6Z" transform="translate(-706.824 -313.968)" fill="none" stroke="#f89963" stroke-width="2"/><path d="M721.872,316.132a19.469,19.469,0,0,1-9.416-33.859" transform="translate(-700.389 -276.634)" fill="none" stroke="#f89963" stroke-width="2"/><g transform="translate(26.85 0.001)"><path d="M765.039,271.693a4.607,4.607,0,0,1,1.237,4.013,4.607,4.607,0,0,1-5.216-5.354A4.609,4.609,0,0,1,765.039,271.693Z" transform="translate(-756.448 -270.303)" fill="none" stroke="#f89963" stroke-width="2"/><path d="M781.858,281.93a2.292,2.292,0,1,1-1.515-3.788A4.469,4.469,0,0,1,781.858,281.93Z" transform="translate(-765.516 -274.449)" fill="none" stroke="#f89963" stroke-width="2"/><path d="M789.84,301.975a2.292,2.292,0,1,1,.228-4.074A4.474,4.474,0,0,1,789.84,301.975Z" transform="translate(-769.686 -284.901)" fill="none" stroke="#f89963" stroke-width="2"/><path d="M788.317,324.1a4.467,4.467,0,0,1-4.043.536,4.476,4.476,0,0,1,5.972-4.131A4.476,4.476,0,0,1,788.317,324.1Z" transform="translate(-768.763 -296.723)" fill="none" stroke="#f89963" stroke-width="2"/><path d="M778.09,343.53a4.467,4.467,0,0,1-3.892-1.223,4.475,4.475,0,0,1,7.158-1.22A4.476,4.476,0,0,1,778.09,343.53Z" transform="translate(-763.434 -307.064)" fill="none" stroke="#f89963" stroke-width="2"/><path d="M761.5,356.6a4.466,4.466,0,0,1-3.01-2.753,4.474,4.474,0,0,1,7,1.919A4.475,4.475,0,0,1,761.5,356.6Z" transform="translate(-755.126 -313.969)" fill="none" stroke="#f89963" stroke-width="2"/><path d="M751.346,316.134a19.47,19.47,0,0,0,9.416-33.86" transform="translate(-751.346 -276.635)" fill="none" stroke="#f89963" stroke-width="2"/></g></g></g></g></svg>