<svg xmlns="http://www.w3.org/2000/svg" width="80" height="80" viewBox="0 0 80 80"><g transform="translate(-1046.972 -910.09)"><g transform="translate(1046.972 910.09)"><circle cx="40" cy="40" r="40" transform="translate(0 0)" fill="#022648"/></g><g transform="translate(1060.397 937.383)"><g transform="translate(11.21 2.677)"><path d="M1099.182,988.519a4.281,4.281,0,0,0,1.154,1.1,1.814,1.814,0,0,1,.19-.9l.639-1.275a1.816,1.816,0,0,1,3.248,1.625l-.639,1.276a1.812,1.812,0,0,1-.635.709l1.434.716a1.792,1.792,0,0,1,.185-.93l1.511-3.017a1.816,1.816,0,0,1,3.248,1.625L1108,992.459a1.789,1.789,0,0,1-.634.709l1.272.636a1.781,1.781,0,0,1,.186-.931l1.864-3.727a1.817,1.817,0,1,1,3.249,1.627l-1.866,3.724a1.8,1.8,0,0,1-.635.71l1.272.635a1.792,1.792,0,0,1,.185-.933l.639-1.275a1.817,1.817,0,0,1,3.251,1.625l-.64,1.277a1.82,1.82,0,0,1-.605.689c.095.035.192.069.289.1l2.405,1.2a1.814,1.814,0,0,0,2.245-2.736,4.45,4.45,0,0,0,.289-.44l1.541.769a1.815,1.815,0,1,0,1.624-3.246l-1.527-.766.159-.314,3.591,1.8a1.816,1.816,0,0,0,1.626-3.249l-3.608-1.8c.046-.111.083-.222.119-.334l5.278,2.641a1.815,1.815,0,0,0,1.625-3.247l-9.168-4.59a8.089,8.089,0,0,1-1.422-.182,7.14,7.14,0,0,1-4.262-2.661l-3.58.4-.129.678a3.153,3.153,0,0,1-3.717,2.458l-1.029-.21-.127-.034,1.269-6.181,4.522-.932,2.3-.444,2.2.487-.669-2.115-.052-.007-4.545-.454-2.335-.2-7.481,2.491" transform="translate(-1099.182 -973.606)" fill="none" stroke="#f89963" stroke-width="2"/><g transform="translate(1.15 2.217)"><path d="M1139.259,978.3l-5.636,1.875-8.216-1.814-6.723,1.375-.05.011-1.269,6.181.127.034,1.029.21a3.153,3.153,0,0,0,3.717-2.458l.129-.678,3.542-.369a12.708,12.708,0,0,0,1.857,1.643.049.049,0,0,0,.016.01c.083.052.165.1.25.151l.041.021c.078.045.158.089.24.129.02.011.042.02.062.033.074.034.151.074.227.109l.09.04c.071.032.141.063.212.092l.12.046c.065.024.126.049.192.074.05.018.1.034.155.052s.11.04.166.056.135.04.2.06c.043.012.086.025.13.038.114.029.227.057.341.083s.235.049.354.069l.045.008c.1.017.207.034.311.047l.026,0c.11.014.223.026.334.036h0c.117.008.235.016.349.019h0l9.094,4.551,2.45-.815" transform="translate(-1109.936 -978.305)" fill="none" stroke="#f89963" stroke-width="2"/><path d="M1131.109,1014.115a1.816,1.816,0,0,0-2.437.811l-.639,1.275a1.817,1.817,0,1,0,3.25,1.626l.64-1.277A1.815,1.815,0,0,0,1131.109,1014.115Z" transform="translate(-1115.469 -997.116)" fill="none" stroke="#f89963" stroke-width="2"/><path d="M1104.89,1000.992a1.814,1.814,0,0,0-2.438.81l-.639,1.275a1.816,1.816,0,1,0,3.247,1.625l.639-1.276A1.815,1.815,0,0,0,1104.89,1000.992Z" transform="translate(-1101.62 -990.185)" fill="none" stroke="#f89963" stroke-width="2"/><path d="M1123.71,1004.606a1.818,1.818,0,0,0-2.437.812l-1.864,3.727a1.815,1.815,0,1,0,3.247,1.624l1.866-3.724A1.821,1.821,0,0,0,1123.71,1004.606Z" transform="translate(-1110.913 -992.094)" fill="none" stroke="#f89963" stroke-width="2"/><path d="M1114.729,1001.794a1.813,1.813,0,0,0-2.436.81l-1.511,3.017a1.816,1.816,0,0,0,3.248,1.624l1.511-3.016A1.815,1.815,0,0,0,1114.729,1001.794Z" transform="translate(-1106.358 -990.609)" fill="none" stroke="#f89963" stroke-width="2"/></g></g><g transform="translate(41.671 1.194)"><rect width="8.755" height="15.235" transform="translate(0 2.763) rotate(-18.398)" fill="none" stroke="#f89963" stroke-width="2"/></g><rect width="17.345" height="10.77" transform="matrix(0.316, -0.949, 0.949, 0.316, 0, 16.457)" fill="none" stroke="#f89963" stroke-width="2"/><line x1="1.887" y1="0.629" transform="translate(7.051 15.21)" fill="none" stroke="#f89963" stroke-width="2"/><line y1="0.528" x2="1.623" transform="translate(47.71 14.153)" fill="none" stroke="#f89963" stroke-width="2"/></g></g></svg>