<svg xmlns="http://www.w3.org/2000/svg" width="80" height="80" viewBox="0 0 80 80"><g transform="translate(-854.183 -228.678)"><g transform="translate(854.183 228.678)"><g transform="translate(0 0)"><circle cx="40" cy="40" r="40" fill="#022648"/></g></g><g transform="translate(870.209 244.682)"><g transform="translate(0)"><g transform="translate(1.167 9.65)"><line y1="22.176" x2="22.176" transform="translate(0 11.075)" fill="none" stroke="#f89963" stroke-width="2"/><line x2="3.805" y2="3.806" transform="translate(2.152 31.099)" fill="none" stroke="#f89963" stroke-width="2"/><line x2="3.805" y2="3.806" transform="translate(7.448 25.804)" fill="none" stroke="#f89963" stroke-width="2"/><line x2="2.317" y2="2.317" transform="translate(4.799 28.451)" fill="none" stroke="#f89963" stroke-width="2"/><g transform="translate(15.409)"><g transform="translate(0 2.586)"><path d="M931.639,296.814a4.572,4.572,0,1,1,0-6.465A4.573,4.573,0,0,1,931.639,296.814Z" transform="translate(-923.835 -289.009)" fill="none" stroke="#f89963" stroke-width="2"/><path d="M945.758,310.932a4.572,4.572,0,1,1,0-6.466A4.572,4.572,0,0,1,945.758,310.932Z" transform="translate(-931.345 -296.519)" fill="none" stroke="#f89963" stroke-width="2"/></g><path d="M951.283,291.289a4.571,4.571,0,1,1,0-6.465A4.571,4.571,0,0,1,951.283,291.289Z" transform="translate(-934.284 -283.485)" fill="none" stroke="#f89963" stroke-width="2"/></g></g><path d="M899.7,305.567a22.948,22.948,0,1,0-7.961-7.872" transform="translate(-888.421 -262.869)" fill="none" stroke="#f89963" stroke-width="2" stroke-dasharray="4"/></g></g></g></svg>