<svg xmlns="http://www.w3.org/2000/svg" width="80" height="80" viewBox="0 0 80 80"><g transform="translate(-83.029 -682.952)"><g transform="translate(83.029 682.952)"><g transform="translate(0 0)"><circle cx="40" cy="40" r="40" fill="#022648"/></g></g><g transform="translate(101.869 700.7)"><g transform="translate(0)"><g transform="translate(0 10.903)"><g transform="translate(13.888)"><path d="M167.05,782.622a.955.955,0,0,1-.954.954H153.531a.954.954,0,0,1-.954-.954V779.6a.955.955,0,0,1,.954-.955H166.1a.953.953,0,0,1,.953.954Z" transform="translate(-152.577 -762.264)" fill="none" stroke="#f89963" stroke-width="2"/><path d="M167.049,747.811a.952.952,0,0,1-.954.954H153.531a.954.954,0,0,1-.955-.953v-3.022a.954.954,0,0,1,.955-.954h12.564a.954.954,0,0,1,.954.954Z" transform="translate(-152.576 -743.835)" fill="none" stroke="#f89963" stroke-width="2"/></g><g transform="translate(16.059 4.686)"><line y1="11.94" fill="none" stroke="#f89963" stroke-width="2"/><line y1="11.94" transform="translate(10.131 0)" fill="none" stroke="#f89963" stroke-width="2"/></g><path d="M123.064,766.242h16.059v-3.8H123.065" transform="translate(-123.064 -753.686)" fill="none" stroke="#f89963" stroke-width="2"/><line y1="3.619" transform="translate(5.366 8.846)" fill="none" stroke="#f89963" stroke-width="2"/><line y1="5.02" transform="translate(20.915 8.146)" fill="none" stroke="#f89963" stroke-width="2"/></g><g transform="translate(0.969)"><path d="M125.124,736.349v-10.3l19.922-5.387,19.92,5.388v17.961c0,13.892-10.647,18.608-18.656,20.946l-1.264.369-1.265-.369c-8.009-2.338-18.657-7.054-18.657-20.946" transform="translate(-125.124 -720.667)" fill="none" stroke="#f89963" stroke-width="2"/><path d="M134.124,741.285v-7.053l15.687-4.242,15.685,4.242v14.719c0,8.638-4.668,13.686-15.608,16.88l-.078.023-.077-.023c-10.942-3.194-15.609-8.242-15.609-16.88v-4.139" transform="translate(-129.889 -725.603)" fill="none" stroke="#f89963" stroke-width="2"/></g></g></g></g></svg>