<svg xmlns="http://www.w3.org/2000/svg" width="80" height="80" viewBox="0 0 80 80"><g transform="translate(-1367.616 -744.154)"><g transform="translate(1367.616 744.154)"><circle cx="40" cy="40" r="40" transform="translate(0 0)" fill="#022648"/></g><g transform="translate(1393.634 763.479)"><path d="M1437.1,856.793a10.517,10.517,0,0,1,5.65-8.281l.1-.062a1.872,1.872,0,0,1,3.641,0l.1.059a10.529,10.529,0,0,1,5.652,8.283" transform="translate(-1430.257 -817.694)" fill="none" stroke="#f89963" stroke-width="2"/><path d="M1451.721,812.775a47.767,47.767,0,0,1-5.086,1.415l-.26.062a34.231,34.231,0,0,0-4.547,1.435,34.264,34.264,0,0,0-4.551-1.436l-.255-.059a47.2,47.2,0,0,1-5.327-1.5" transform="translate(-1427.409 -799.604)" fill="none" stroke="#f89963" stroke-width="2"/><g transform="translate(0)"><rect width="28.833" height="4.537" fill="none" stroke="#f89963" stroke-width="2"/><rect width="28.833" height="4.537" transform="translate(0 38.932)" fill="none" stroke="#f89963" stroke-width="2"/></g><g transform="translate(0 6.989)"><line y2="29.272" transform="translate(0 0.11)" fill="none" stroke="#f89963" stroke-width="2"/><line y2="29.273" transform="translate(28.833)" fill="none" stroke="#f89963" stroke-width="2"/></g><g transform="translate(4.432 6.989)"><path d="M1464.548,832.015V819.105l-8.684-4.619,8.684-4.619V799.8" transform="translate(-1444.579 -799.796)" fill="none" stroke="#f89963" stroke-width="2"/><path d="M1432,799.8v10.072l8.684,4.619L1432,819.105v12.909" transform="translate(-1432.003 -799.796)" fill="none" stroke="#f89963" stroke-width="2"/></g><line y1="5.675" transform="translate(14.416 23.758)" fill="none" stroke="#f89963" stroke-width="2" stroke-dasharray="4"/></g></g></svg>