<svg xmlns="http://www.w3.org/2000/svg" width="80" height="80" viewBox="0 0 80 80"><g transform="translate(-1517.837 -481.968)"><g transform="translate(1517.837 481.968)"><circle cx="40" cy="40" r="40" transform="translate(0 0)" fill="#022648"/></g><g transform="translate(1538.751 501.116)"><g transform="translate(1.071 2.937)"><path d="M1636.022,535.212v-3.276a3.013,3.013,0,0,1,6.025,0v3.276Z" transform="translate(-1602.422 -528.923)" fill="none" stroke="#f89963" stroke-width="2"/><path d="M1620.89,528.968c.82,0,8.441.007,9.78,0a3.012,3.012,0,0,0-2.663,2.991v10.527" transform="translate(-1594.406 -528.947)" fill="none" stroke="#f89963" stroke-width="2"/><path d="M1576.385,601.664l.011.47v-3.923" transform="translate(-1570.833 -565.623)" fill="none" stroke="#f89963" stroke-width="2"/><path d="M1601.435,601.211v2.695h-.009l.009.5a3.019,3.019,0,0,1-2.67,2.991c-.821,0-26.7-.006-28.041,0" transform="translate(-1567.834 -567.212)" fill="none" stroke="#f89963" stroke-width="2"/><path d="M1592.62,604.793v1.513a3.012,3.012,0,0,0,2.662,2.991c-1.338-.006-27.22,0-28.039,0a3.011,3.011,0,0,1-2.662-2.991v-1.513Z" transform="translate(-1564.581 -569.109)" fill="none" stroke="#f89963" stroke-width="2"/><path d="M1636.022,531.935a3.013,3.013,0,0,1,6.025,0v4.214" transform="translate(-1602.422 -528.923)" fill="none" stroke="#f89963" stroke-width="2"/><path d="M1624.2,602.828v2.438a3.043,3.043,0,0,0,2.836,2.991" transform="translate(-1596.158 -568.069)" fill="none" stroke="#f89963" stroke-width="2"/></g><path d="M1586.631,555.239a.387.387,0,0,1-.387.388H1562.69a.387.387,0,0,1-.386-.388V523.067a.387.387,0,0,1,.386-.388h23.553a.387.387,0,0,1,.387.388Z" transform="translate(-1562.304 -522.679)" fill="none" stroke="#f89963" stroke-width="2"/><path d="M1586.631,531.837v24.55a.387.387,0,0,1-.387.388H1562.69a.387.387,0,0,1-.386-.388v-24.55" transform="translate(-1562.304 -527.53)" fill="none" stroke="#f89963" stroke-width="2"/><rect width="16.723" height="4.236" transform="translate(3.802 4.958)" fill="none" stroke="#f89963" stroke-width="2"/><g transform="translate(3.112 13.525)"><line x2="3.062" fill="none" stroke="#f89963" stroke-width="2"/><line x2="3.062" transform="translate(5.013)" fill="none" stroke="#f89963" stroke-width="2"/><line x2="3.062" transform="translate(10.026)" fill="none" stroke="#f89963" stroke-width="2"/><line x2="3.062" transform="translate(15.04)" fill="none" stroke="#f89963" stroke-width="2"/></g><g transform="translate(3.112 17.31)"><line x2="3.062" fill="none" stroke="#f89963" stroke-width="2"/><line x2="3.062" transform="translate(5.013)" fill="none" stroke="#f89963" stroke-width="2"/><line x2="3.062" transform="translate(10.026)" fill="none" stroke="#f89963" stroke-width="2"/><line x2="3.062" transform="translate(15.04)" fill="none" stroke="#f89963" stroke-width="2"/></g><g transform="translate(3.112 21.095)"><line x2="3.062" fill="none" stroke="#f89963" stroke-width="2"/><line x2="3.062" transform="translate(5.013)" fill="none" stroke="#f89963" stroke-width="2"/><line x2="3.062" transform="translate(10.026)" fill="none" stroke="#f89963" stroke-width="2"/><line x2="3.062" transform="translate(15.04)" fill="none" stroke="#f89963" stroke-width="2"/></g><g transform="translate(3.112 24.88)"><line x2="3.062" fill="none" stroke="#f89963" stroke-width="2"/><line x2="3.062" transform="translate(5.013)" fill="none" stroke="#f89963" stroke-width="2"/><line x2="3.062" transform="translate(10.026)" fill="none" stroke="#f89963" stroke-width="2"/><line x2="3.062" transform="translate(15.04)" fill="none" stroke="#f89963" stroke-width="2"/></g><g transform="translate(27.283 12.589)"><path d="M1634.974,571.808a7.331,7.331,0,1,1-7.332-7.33A7.331,7.331,0,0,1,1634.974,571.808Z" transform="translate(-1620.313 -557.408)" fill="none" stroke="#f89963" stroke-width="2"/><g transform="translate(4.994 10.584)"><path d="M1633.255,578.712v-6.763l-2.324,2.412" transform="translate(-1630.931 -571.949)" fill="none" stroke="#f89963" stroke-linejoin="bevel" stroke-width="2"/><line x2="3.154" transform="translate(0.729 6.739)" fill="none" stroke="#f89963" stroke-width="2"/></g><line y2="5.879" transform="translate(13.462)" fill="none" stroke="#f89963" stroke-width="2"/><line x1="5.879" transform="translate(10.522 2.94)" fill="none" stroke="#f89963" stroke-width="2"/></g></g></g></svg>