<svg xmlns="http://www.w3.org/2000/svg" width="80" height="80" viewBox="0 0 80 80"><g transform="translate(-83.029 -1137.226)"><g transform="translate(83.029 1137.226)"><circle cx="40" cy="40" r="40" transform="translate(0)" fill="#022648"/></g><g transform="translate(99.362 1155.924)"><g transform="translate(0 0)"><g transform="translate(0.973)"><path d="M195.564,1201.658v-3.5a3.128,3.128,0,0,0-1.881-2.8,18.122,18.122,0,0,0-11.119,0,3.131,3.131,0,0,0-1.881,2.8V1210.8l-.053,4.281-3.462-5.783" transform="translate(-150.233 -1186.274)" fill="none" stroke="#f89963" stroke-linejoin="bevel" stroke-width="2"/><path d="M167.515,1210.825a2.98,2.98,0,1,1-2.979-2.98A2.98,2.98,0,0,1,167.515,1210.825Z" transform="translate(-141.958 -1193.356)" fill="none" stroke="#f89963" stroke-width="2"/><rect width="8.203" height="8.901" transform="translate(18.684 23.546)" fill="none" stroke="#f89963" stroke-width="2"/><g transform="translate(20.43 32.273)"><line y2="7.505" fill="none" stroke="#f89963" stroke-width="2"/><line y2="7.505" transform="translate(4.712)" fill="none" stroke="#f89963" stroke-width="2"/></g><path d="M119.854,1205.271l.539-1.8a5.235,5.235,0,0,1,2.089-2.8,9.157,9.157,0,0,1,3.7-.873h0a9.15,9.15,0,0,1,3.7.873,5.212,5.212,0,0,1,2.089,2.8l3.065,14.427,3.461-5.783" transform="translate(-119.854 -1189.092)" fill="none" stroke="#f89963" stroke-linejoin="bevel" stroke-width="2"/><path d="M199.96,1181.084a4.07,4.07,0,1,1-4.069-4.07A4.07,4.07,0,0,1,199.96,1181.084Z" transform="translate(-157.999 -1177.014)" fill="none" stroke="#f89963" stroke-width="2"/><path d="M132.819,1186.634a3.861,3.861,0,1,1-3.86-3.863A3.861,3.861,0,0,1,132.819,1186.634Z" transform="translate(-122.633 -1180.066)" fill="none" stroke="#f89963" stroke-width="2"/></g><g transform="translate(0 18.557)"><path d="M129.737,1232.585v-6.114c-.255-1.562-1.366-3.052-2.919-3.053h-.934c-.041,0-.079.006-.117.008" transform="translate(-122.014 -1220.168)" fill="none" stroke="#f89963" stroke-width="2"/><path d="M126.22,1241.481l-8.319-13.96-.117-11.01c.039,0,.077-.008.117-.008h.936c1.553,0,2.663,1.491,2.918,3.052v6.115l2.284,2.413,6.539,6.539h0l-4.064-4.044a3.056,3.056,0,0,1,.4-4.055s.854-.811.883-.834l7.234,7.233.338,5.256v3.886" transform="translate(-117.783 -1216.502)" fill="none" stroke="#f89963" stroke-width="2"/><line x1="14.552" transform="translate(6.009 25.385)" fill="none" stroke="#f89963" stroke-width="2"/><g transform="translate(27.074)"><path d="M202.713,1232.585v-6.114c.254-1.562,1.365-3.052,2.917-3.053h.936c.04,0,.078.006.117.008" transform="translate(-189.874 -1220.168)" fill="none" stroke="#f89963" stroke-width="2"/><path d="M190.873,1241.481l8.319-13.96.117-11.01c-.039,0-.077-.008-.117-.008h-.936c-1.552,0-2.664,1.491-2.918,3.052v6.115l-2.284,2.413-6.539,6.539-.028.035,4.064-4.045a3.055,3.055,0,0,0-.4-4.055s-.826-.846-.853-.869l-7.235,7.233-.338,5.256v3.886" transform="translate(-178.749 -1216.502)" fill="none" stroke="#f89963" stroke-width="2"/><line x2="14.552" transform="translate(0 25.385)" fill="none" stroke="#f89963" stroke-width="2"/></g></g></g></g></g></svg>