<svg xmlns="http://www.w3.org/2000/svg" width="80" height="80" viewBox="0 0 80 80"><g transform="translate(-276.317 -682.952)"><g transform="translate(276.317 682.952)"><g transform="translate(0 0)"><circle cx="40" cy="40" r="40" fill="#022648"/></g></g><g transform="translate(296.188 701.411)"><g transform="translate(0 0)"><g transform="translate(19.855 9.379)"><line x2="16.382" transform="translate(0 6.101)" fill="none" stroke="#f89963" stroke-width="2"/><g transform="translate(14.824)"><path d="M395.745,748.1a2.93,2.93,0,1,1,2.93-2.929A2.929,2.929,0,0,1,395.745,748.1Z" transform="translate(-392.815 -742.237)" fill="none" stroke="#f89963" stroke-width="2"/><path d="M395.745,760.854a2.93,2.93,0,1,1,2.93-2.931A2.93,2.93,0,0,1,395.745,760.854Z" transform="translate(-392.815 -749.003)" fill="none" stroke="#f89963" stroke-width="2"/><path d="M407.114,754.476a2.93,2.93,0,1,1,2.929-2.93A2.93,2.93,0,0,1,407.114,754.476Z" transform="translate(-398.845 -745.621)" fill="none" stroke="#f89963" stroke-width="2"/></g></g><path d="M366.051,776.443a8.842,8.842,0,0,1,1.312-4.437,29.037,29.037,0,0,0,5.27-10.636" transform="translate(-343.94 -743.007)" fill="none" stroke="#f89963" stroke-width="2"/><path d="M348.072,734.577a14.649,14.649,0,0,0-29.11,2.332c0,.479.343,7.244,5.868,14.353a8.776,8.776,0,0,1,1.289,4.437" transform="translate(-318.962 -722.263)" fill="none" stroke="#f89963" stroke-width="2"/><g transform="translate(5.124 33.61)"><line x2="19.048" fill="none" stroke="#f89963" stroke-width="2"/><line x2="19.048" transform="translate(0 3.7)" fill="none" stroke="#f89963" stroke-width="2"/><line x2="19.048" transform="translate(0 7.4)" fill="none" stroke="#f89963" stroke-width="2"/><line x2="13.867" transform="translate(2.59 11.101)" fill="none" stroke="#f89963" stroke-width="2"/><line y1="7.032" transform="translate(2.21 0.196)" fill="none" stroke="#f89963" stroke-width="2"/></g><path d="M349.749,744.793a3.134,3.134,0,1,0-4.741,2.686l-.71,7.72h4.632l-.712-7.72A3.125,3.125,0,0,0,349.749,744.793Z" transform="translate(-331.967 -732.551)" fill="none" stroke="#f89963" stroke-width="2"/><line y2="5.478" transform="translate(21.89 15.292)" fill="none" stroke="#f89963" stroke-width="2"/><line y2="2.974" transform="translate(25.177 15.292)" fill="none" stroke="#f89963" stroke-width="2"/></g></g></g></svg>