<svg xmlns="http://www.w3.org/2000/svg" width="80" height="80" viewBox="0 0 80 80"><g transform="translate(-1633.799 -965.474)"><g transform="translate(1633.799 965.474)"><ellipse cx="40" cy="40" rx="40" ry="40" fill="#022648"/></g><g transform="translate(1651.047 984.255)"><g transform="translate(0 0)"><path d="M1787.013,1014.077a3.287,3.287,0,0,1,3.287,3.287v3.576h-3.823" transform="translate(-1747.055 -1014.077)" fill="none" stroke="#f89963" stroke-width="2"/><path d="M1690.035,1050.293v-32.888a3.284,3.284,0,0,1,2.9-3.264c.894,0,29.139.006,30.6,0a3.286,3.286,0,0,0-2.906,3.264v36.758h-.01l.01.55a3.294,3.294,0,0,1-2.915,3.263c-.9,0-29.141-.006-30.6,0" transform="translate(-1683.964 -1014.118)" fill="none" stroke="#f89963" stroke-width="2"/><path d="M1709.08,1120.761v1.652a3.286,3.286,0,0,0,2.906,3.263c-1.461-.006-29.706,0-30.6,0a3.285,3.285,0,0,1-2.905-3.263v-1.652Z" transform="translate(-1678.48 -1081.818)" fill="none" stroke="#f89963" stroke-width="2"/><path d="M1778.937,1017.365a3.288,3.288,0,0,1,6.575,0v4.055" transform="translate(-1742.267 -1014.077)" fill="none" stroke="#f89963" stroke-width="2"/><path d="M1762.309,1118v2.661a3.32,3.32,0,0,0,3.1,3.263" transform="translate(-1731.708 -1080.063)" fill="none" stroke="#f89963" stroke-width="2"/><g transform="translate(24.449 24.508)"><path d="M1752.518,1096v4.991l-2.316-1.6-2.316,1.6V1096" transform="translate(-1747 -1090.604)" fill="none" stroke="#f89963" stroke-width="2"/><path d="M1751.863,1084.416a3.2,3.2,0,1,1-3.2-3.2A3.2,3.2,0,0,1,1751.863,1084.416Z" transform="translate(-1745.457 -1081.215)" fill="none" stroke="#f89963" stroke-width="2"/><line y2="1.835" transform="translate(3.203 2.383)" fill="none" stroke="#f89963" stroke-width="2"/></g><g transform="translate(10.753 6.656)"><line x2="11.824" transform="translate(4.046)" fill="none" stroke="#f89963" stroke-width="2"/><line x2="19.915" transform="translate(0 4.612)" fill="none" stroke="#f89963" stroke-width="2"/><line x2="19.915" transform="translate(0 9.15)" fill="none" stroke="#f89963" stroke-width="2"/><line x2="19.915" transform="translate(0 13.689)" fill="none" stroke="#f89963" stroke-width="2"/><line x2="11.838" transform="translate(0 18.227)" fill="none" stroke="#f89963" stroke-width="2"/><line x2="7.862" transform="translate(0 22.765)" fill="none" stroke="#f89963" stroke-width="2"/></g></g></g></g></svg>