<svg xmlns="http://www.w3.org/2000/svg" width="80" height="80" viewBox="0 0 80 80"><g transform="translate(-1831.587 -280.986)"><g transform="translate(1831.587 280.986)"><circle cx="40" cy="40" r="40" transform="translate(0 0)" fill="#022648"/></g><g transform="translate(1846.265 295.804)"><line x2="46.219" transform="translate(0 43.143)" fill="none" stroke="#f89963" stroke-width="2"/><path d="M1917.368,395.56v-2.176a1.089,1.089,0,0,1,1.088-1.088h15.774a1.088,1.088,0,0,1,1.088,1.088v2.176" transform="translate(-1891.589 -354.617)" fill="none" stroke="#f89963" stroke-width="2"/><path d="M1.9,0h11.6a1.9,1.9,0,0,1,1.9,1.9v0a1.9,1.9,0,0,1-1.9,1.9H1.9A1.9,1.9,0,0,1,0,1.9v0A1.9,1.9,0,0,1,1.9,0Z" transform="translate(27.048 33.871)" fill="none" stroke="#f89963" stroke-width="2"/><g transform="translate(3.679)"><g transform="translate(14.329)"><path d="M1938.186,339.441a.958.958,0,0,1,0,1.353l-8.9,8.9a.956.956,0,0,1-1.352,0l-2.142-2.142a.957.957,0,0,1,0-1.353l8.9-8.9a.955.955,0,0,1,1.351,0Z" transform="translate(-1913.898 -325.41)" fill="none" stroke="#f89963" stroke-width="2"/><path d="M1913.571,314.827a.955.955,0,0,1,0,1.352l-8.9,8.9a.956.956,0,0,1-1.352,0l-2.142-2.142a.957.957,0,0,1,0-1.353l8.9-8.9a.958.958,0,0,1,1.354,0Z" transform="translate(-1900.892 -312.405)" fill="none" stroke="#f89963" stroke-width="2"/></g><g transform="translate(18.792 4.463)"><line x1="8.462" y1="8.462" transform="translate(0 7.179)" fill="none" stroke="#f89963" stroke-width="2"/><line x1="8.462" y1="8.462" transform="translate(7.18)" fill="none" stroke="#f89963" stroke-width="2"/></g><rect width="25.745" height="3.807" transform="translate(3.472 32.732) rotate(-45)" fill="none" stroke="#f89963" stroke-width="2"/><rect width="3.967" height="5.693" transform="translate(0 34.87) rotate(-45)" fill="none" stroke="#f89963" stroke-width="2"/><line x1="2.564" y1="2.564" transform="translate(18.023 18.309)" fill="none" stroke="#f89963" stroke-width="2"/><line x1="2.564" y1="2.564" transform="translate(15.33 21.001)" fill="none" stroke="#f89963" stroke-width="2"/><line x1="3.557" y1="3.557" transform="translate(24.685 10.654)" fill="none" stroke="#f89963" stroke-width="2"/></g><g transform="translate(41.654 21.106)"><line x2="4.127" transform="translate(0.625 5.293)" fill="none" stroke="#f89963" stroke-width="2"/><line y1="2.214" x2="3.483" fill="none" stroke="#f89963" stroke-width="2"/><line x2="3.483" y2="2.214" transform="translate(0 8.371)" fill="none" stroke="#f89963" stroke-width="2"/></g><g transform="translate(23.732 26.399)"><line x1="4.127" fill="none" stroke="#f89963" stroke-width="2"/><g transform="translate(1.268 3.078)"><line x1="3.483" y2="2.214" fill="none" stroke="#f89963" stroke-width="2"/></g></g></g></g></svg>