<svg xmlns="http://www.w3.org/2000/svg" width="15.04" height="23.823" viewBox="0 0 15.04 23.823"><g transform="translate(-152.108 -65.735)"><path d="M199.507,107.75a5.384,5.384,0,1,0,5.384,5.384A5.384,5.384,0,0,0,199.507,107.75Zm0,10.2a4.821,4.821,0,1,1,4.821-4.821A4.821,4.821,0,0,1,199.507,117.954Z" transform="translate(-39.879 -39.879)" fill="none"/><path d="M312.667,342.593h0c-.564.365-1.03,1.322-1.668,1.488a1.242,1.242,0,0,1-.57-.008c-.187.505-.633,1.7-1.146,3.04.908,2.347,1.969,4.954,2.189,4.915.4-.07,1.22-2.44,1.6-2.58s2.322,1.149,2.745.985c.371-.144-2.206-6.436-2.84-7.969a1.565,1.565,0,0,0-.29.121Z" transform="translate(-149.183 -262.658)" fill="#284266"/><path d="M166.7,73.255v0s0,0,0,0c0-.629.576-1.4.418-2.007-.152-.585-1.03-1.013-1.364-1.53h0l-.008-.013c-.305-.547-.2-1.488-.635-1.933s-1.4-.362-1.946-.643h0l-.03-.017c-.529-.329-.9-1.182-1.5-1.347s-1.392.386-2.007.417h0c-.629,0-1.4-.576-2.007-.418-.585.152-1.013,1.03-1.53,1.364h0l-.013.008c-.547.305-1.488.2-1.933.635s-.362,1.4-.643,1.946h0l-.017.03c-.329.529-1.182.9-1.347,1.5s.386,1.392.417,2.007v0s0,0,0,0c0,.629-.576,1.4-.418,2.007.152.585,1.03,1.013,1.364,1.53h0l.008.013c.305.547.2,1.488.635,1.933s1.4.362,1.946.643h0l.03.017c.529.329.9,1.182,1.5,1.347s1.392-.386,2.007-.417h0c.629,0,1.4.576,2.007.418.585-.152,1.013-1.03,1.53-1.364h0l.013-.008c.547-.305,1.488-.2,1.933-.635s.362-1.4.643-1.946h0l.017-.03c.329-.529,1.182-.9,1.347-1.5S166.732,73.869,166.7,73.255Zm-7.074,5.384a5.384,5.384,0,1,1,5.384-5.384A5.384,5.384,0,0,1,159.628,78.638Z" fill="#284266"/><circle cx="4.821" cy="4.821" r="4.821" transform="translate(154.807 68.434)" fill="#284266"/><path d="M174.964,346.565h0a2.954,2.954,0,0,0-.775.189,2.649,2.649,0,0,1-1.413.265c-.487-.135-.839-.691-1.227-1.113a2.085,2.085,0,0,0-.394-.347c-.612,1.478-3.226,7.854-2.853,8a.761.761,0,0,0,.443-.064c.732-.254,2.005-1.032,2.3-.921a.524.524,0,0,1,.191.192c.416.594,1.064,2.328,1.4,2.388.034.006.088-.052.158-.161a54.824,54.824,0,0,0,2.369-5.635c.419-1.1.77-2.041.936-2.489A3.759,3.759,0,0,0,174.964,346.565Z" transform="translate(-15.337 -265.598)" fill="#284266"/></g></svg>