<svg xmlns="http://www.w3.org/2000/svg" width="40.022" height="40.014" viewBox="0 0 40.022 40.014"><path d="M20.013,10.742A10.259,10.259,0,1,0,30.272,21,10.243,10.243,0,0,0,20.013,10.742Zm0,16.929A6.67,6.67,0,1,1,26.683,21,6.682,6.682,0,0,1,20.013,27.671ZM33.085,10.323A2.393,2.393,0,1,1,30.692,7.93,2.387,2.387,0,0,1,33.085,10.323Zm6.795,2.429C39.728,9.546,39,6.707,36.647,4.367S31.469,1.3,28.263,1.135c-3.3-.188-13.205-.188-16.509,0-3.2.152-6.036.884-8.384,3.223S.3,9.537.138,12.742c-.188,3.3-.188,13.205,0,16.509.152,3.205.884,6.045,3.232,8.384s5.179,3.071,8.384,3.232c3.3.188,13.205.188,16.509,0,3.205-.152,6.045-.884,8.384-3.232s3.071-5.179,3.232-8.384C40.067,25.948,40.067,16.055,39.879,12.751ZM35.612,32.8a6.753,6.753,0,0,1-3.8,3.8c-2.634,1.045-8.884.8-11.795.8s-9.17.232-11.795-.8a6.752,6.752,0,0,1-3.8-3.8c-1.045-2.634-.8-8.884-.8-11.795s-.232-9.17.8-11.795a6.752,6.752,0,0,1,3.8-3.8c2.634-1.045,8.884-.8,11.795-.8s9.17-.232,11.795.8a6.753,6.753,0,0,1,3.8,3.8c1.045,2.634.8,8.884.8,11.795S36.656,30.171,35.612,32.8Z" transform="translate(0.002 -0.995)" fill="#ae513b"/></svg>