<svg xmlns="http://www.w3.org/2000/svg" width="412.303" height="116.168" viewBox="0 0 412.303 116.168"><g transform="translate(2047.064 -2724.109)"><g transform="translate(-1900.916 2746.312)"><g transform="translate(0.164 0)"><path d="M-1263.883,2937.3h-14.379v-32.277h11.445c5.965,0,10.222,3.717,10.222,9a7.64,7.64,0,0,1-2.4,5.82,8.1,8.1,0,0,1,5.722,7.972C-1253.27,2933.388-1257.671,2937.3-1263.883,2937.3Zm-8.02-26.6v7.385h4.547c2.692,0,4.205-1.418,4.205-3.717s-1.513-3.667-4.205-3.667Zm7.53,12.812h-7.53v8.119h7.53c2.887,0,4.6-1.518,4.6-4.06C-1259.773,2925.074-1261.486,2923.509-1264.373,2923.509Z" transform="translate(1278.262 -2892.797)" fill="#fff"/><path d="M-1098.387,2901.923c9.294-.2,17.362,7.482,17.215,16.725.147,9.245-7.92,16.922-17.215,16.727-9.29.2-17.262-7.482-17.115-16.727C-1115.649,2909.405-1107.677,2901.728-1098.387,2901.923Zm.048,6.112c-5.965,0-10.365,4.4-10.365,10.612s4.4,10.612,10.365,10.612c5.918,0,10.37-4.4,10.37-10.612A10.223,10.223,0,0,0-1098.339,2908.035Z" transform="translate(1146.478 -2890.283)" fill="#fff"/><path d="M-885.342,2901.93a16.172,16.172,0,0,1,13.595,6.992l-4.7,3.865a10.576,10.576,0,0,0-9-4.745c-6.16,0-10.365,4.452-10.365,10.612,0,6.26,4.352,10.809,10.76,10.809a10.171,10.171,0,0,0,8.51-4.01v-2.642h-8.9v-5.722h15.506v9.537a17.1,17.1,0,0,1-6.312,6.357,17.306,17.306,0,0,1-9.1,2.4c-9.489.2-17.41-7.482-17.262-16.727C-902.8,2909.364-894.879,2901.782-885.342,2901.93Z" transform="translate(974.099 -2890.29)" fill="#fff"/><path d="M-687.928,2905.02h10.564c10.222-.1,17.752,6.5,17.6,16.04.148,9.342-7.383,16.384-17.6,16.237h-10.564Zm10.517,26.31c6.5,0,10.855-4.058,10.855-10.27,0-6.26-4.253-10.075-10.855-10.075h-3.914v20.345Z" transform="translate(800.275 -2892.793)" fill="#fff"/><path d="M-495.563,2930.6h-13.2l-1.812,4.205h-7.088l14.427-32.864h2.2l14.379,32.864h-7.092Zm-6.6-16.334-4.3,10.905h8.609Z" transform="translate(662.417 -2890.298)" fill="#fff"/><path d="M-291.216,2902.525v32.864h-2.2l-18.684-19.954V2934.8h-6.6v-32.864h2.154l18.728,19.855v-19.268Z" transform="translate(501.315 -2890.298)" fill="#fff"/><path d="M-122.536,2905.024h6.6V2937.3h-6.6Z" transform="translate(342.483 -2892.797)" fill="#fff"/><path d="M-28.69,2852.416a16.012,16.012,0,0,1,14.232,8.02l-4.99,3.522q-3.446-5.43-9.242-5.43c-6.017,0-10.417,4.5-10.417,10.663a10.134,10.134,0,0,0,10.417,10.562q5.794,0,9.242-5.427l4.99,3.52a15.871,15.871,0,0,1-14.284,8.022c-9.438.2-17.358-7.482-17.163-16.727C-46.053,2859.9-38.08,2852.22-28.69,2852.416Zm1.027-11.64h7.92v1.175l-6.7,7.922h-4.794Z" transform="translate(280.439 -2840.776)" fill="#fff"/></g><g transform="translate(0 57.233)"><path d="M-1279.082,3155.316l6.134-13.581a.363.363,0,0,1,.343-.222h.2a.365.365,0,0,1,.343.222l6.094,13.581a.357.357,0,0,1-.344.524h-.808a.369.369,0,0,1-.342-.222l-1.493-3.329h-7.164l-1.472,3.329a.374.374,0,0,1-.343.222h-.808A.356.356,0,0,1-1279.082,3155.316Zm9.584-4.278c-.989-2.2-1.957-4.419-2.946-6.619h-.161l-2.946,6.619Z" transform="translate(1279.122 -3141.513)" fill="#fff"/><path d="M-1198.39,3142.958a.379.379,0,0,1,.363-.383h4.52a7.082,7.082,0,0,1,7.082,7.042,7.091,7.091,0,0,1-7.082,7.083h-4.52a.379.379,0,0,1-.363-.383Zm4.559,12.35a5.5,5.5,0,0,0,5.711-5.691,5.491,5.491,0,0,0-5.711-5.67h-3.026v11.361Z" transform="translate(1213.754 -3142.373)" fill="#fff"/><path d="M-1129.917,3143.1a.356.356,0,0,1,.343-.524h.807a.371.371,0,0,1,.344.222l5.025,11.3h.08l5.024-11.3a.4.4,0,0,1,.344-.222h.807a.357.357,0,0,1,.343.524l-6.135,13.581a.384.384,0,0,1-.343.222h-.2a.412.412,0,0,1-.344-.222Z" transform="translate(1158.345 -3142.373)" fill="#fff"/><path d="M-1047.819,3141.513a7.252,7.252,0,0,1,7.266,7.285,7.217,7.217,0,0,1-7.266,7.244,7.2,7.2,0,0,1-7.244-7.244A7.235,7.235,0,0,1-1047.819,3141.513Zm0,13.116a5.865,5.865,0,0,0,5.853-5.832,5.9,5.9,0,0,0-5.853-5.872,5.883,5.883,0,0,0-5.831,5.872A5.848,5.848,0,0,0-1047.819,3154.629Z" transform="translate(1097.704 -3141.513)" fill="#fff"/><path d="M-962.553,3143.059a.478.478,0,0,1,.483-.484h.586a.491.491,0,0,1,.483.484v5.71l6.3-5.993a.6.6,0,0,1,.383-.2h.989a.389.389,0,0,1,.243.706l-6.377,5.953,6.679,6.841a.4.4,0,0,1-.343.625h-1.029a.55.55,0,0,1-.363-.141L-961,3149.8v6.417a.491.491,0,0,1-.483.484h-.586a.478.478,0,0,1-.483-.484Z" transform="translate(1022.799 -3142.373)" fill="#fff"/><path d="M-907.342,3155.316l6.134-13.581a.363.363,0,0,1,.344-.222h.2a.365.365,0,0,1,.343.222l6.093,13.581a.356.356,0,0,1-.342.524h-.808a.369.369,0,0,1-.342-.222l-1.493-3.329h-7.164l-1.474,3.329a.369.369,0,0,1-.342.222H-907A.355.355,0,0,1-907.342,3155.316Zm9.584-4.278c-.988-2.2-1.957-4.419-2.946-6.619h-.161l-2.946,6.619Z" transform="translate(978.128 -3141.513)" fill="#fff"/><path d="M-836.862,3143.927h-3.511a.384.384,0,0,1-.385-.384v-.585a.383.383,0,0,1,.385-.383h8.556a.382.382,0,0,1,.383.383v.585a.383.383,0,0,1-.383.384h-3.511v12.39a.4.4,0,0,1-.383.383h-.767a.4.4,0,0,1-.383-.383Z" transform="translate(924.184 -3142.373)" fill="#fff"/><path d="M-785.323,3153.722c.1-.121.2-.262.3-.383.2-.262.424-.424.707-.182a5.578,5.578,0,0,0,3.411,1.533,2.433,2.433,0,0,0,2.7-2.22c0-1.392-1.211-2.219-3.531-3.188-2.22-.969-3.551-1.876-3.551-4.177,0-1.372,1.089-3.592,4.3-3.592a6.605,6.605,0,0,1,3.452,1.029.449.449,0,0,1,.12.686c-.081.121-.161.262-.242.383a.457.457,0,0,1-.707.182,5.646,5.646,0,0,0-2.643-.929c-2.139,0-2.785,1.372-2.785,2.22,0,1.352,1.03,2.139,2.724,2.845,2.724,1.11,4.481,2.139,4.481,4.48,0,2.1-2,3.632-4.359,3.632a6.575,6.575,0,0,1-4.257-1.634A.443.443,0,0,1-785.323,3153.722Z" transform="translate(879.389 -3141.513)" fill="#fff"/><path d="M-723.539,3143.059a.478.478,0,0,1,.483-.484h.587a.49.49,0,0,1,.483.484v5.71l6.3-5.993a.6.6,0,0,1,.383-.2h.989a.389.389,0,0,1,.243.706l-6.377,5.953,6.679,6.841a.4.4,0,0,1-.343.625h-1.028a.55.55,0,0,1-.363-.141l-6.479-6.76v6.417a.491.491,0,0,1-.483.484h-.587a.478.478,0,0,1-.483-.484Z" transform="translate(829.273 -3142.373)" fill="#fff"/><path d="M-668.327,3155.316l6.134-13.581a.363.363,0,0,1,.343-.222h.2a.364.364,0,0,1,.343.222l6.093,13.581a.356.356,0,0,1-.342.524h-.808a.369.369,0,0,1-.342-.222l-1.494-3.329h-7.164l-1.474,3.329a.369.369,0,0,1-.342.222h-.808A.355.355,0,0,1-668.327,3155.316Zm9.584-4.278c-.987-2.2-1.957-4.419-2.946-6.619h-.161l-2.946,6.619Z" transform="translate(784.601 -3141.513)" fill="#fff"/><path d="M-564.075,3143.059a.478.478,0,0,1,.483-.484h.587a.491.491,0,0,1,.483.484v5.71l6.3-5.993a.6.6,0,0,1,.383-.2h.989a.389.389,0,0,1,.243.706l-6.377,5.953,6.679,6.841a.4.4,0,0,1-.343.625h-1.029a.55.55,0,0,1-.363-.141l-6.479-6.76v6.417a.491.491,0,0,1-.483.484h-.587a.478.478,0,0,1-.483-.484Z" transform="translate(700.156 -3142.373)" fill="#fff"/><path d="M-508.864,3155.316l6.134-13.581a.363.363,0,0,1,.344-.222h.2a.365.365,0,0,1,.343.222l6.093,13.581a.355.355,0,0,1-.342.524h-.808a.369.369,0,0,1-.342-.222l-1.494-3.329H-505.9l-1.474,3.329a.369.369,0,0,1-.342.222h-.808A.355.355,0,0,1-508.864,3155.316Zm9.584-4.278c-.988-2.2-1.957-4.419-2.946-6.619h-.161l-2.946,6.619Z" transform="translate(655.485 -3141.513)" fill="#fff"/><path d="M-428.181,3141.876a.379.379,0,0,1,.383-.363h.5l9.1,11.341h.039V3142.1a.384.384,0,0,1,.384-.383h.707a.4.4,0,0,1,.383.383v13.58a.379.379,0,0,1-.383.363h-.363l-9.262-11.562h-.021v10.978a.382.382,0,0,1-.383.383h-.707a.4.4,0,0,1-.383-.383Z" transform="translate(590.124 -3141.513)" fill="#fff"/><path d="M-344.186,3141.513a7.1,7.1,0,0,1,4.883,1.877.391.391,0,0,1,.02.565l-.544.545c-.163.2-.324.181-.526-.021a6.11,6.11,0,0,0-3.853-1.513,5.724,5.724,0,0,0-5.631,5.812,5.719,5.719,0,0,0,5.631,5.792,5.87,5.87,0,0,0,3.853-1.514.382.382,0,0,1,.485-.061l.6.545a.383.383,0,0,1-.02.545,6.925,6.925,0,0,1-4.9,1.957,7.235,7.235,0,0,1-7.285-7.244A7.27,7.27,0,0,1-344.186,3141.513Z" transform="translate(528.013 -3141.513)" fill="#fff"/><path d="M-271.066,3142.958a.382.382,0,0,1,.383-.383h7.951a.382.382,0,0,1,.383.383v.585a.383.383,0,0,1-.383.384h-6.781v4.923h5.792a.4.4,0,0,1,.383.383v.585a.382.382,0,0,1-.383.383h-5.792v5.146h6.781a.383.383,0,0,1,.383.384v.585a.383.383,0,0,1-.383.383h-7.951a.383.383,0,0,1-.383-.383Z" transform="translate(462.91 -3142.373)" fill="#fff"/><path d="M-208.265,3142.958a.382.382,0,0,1,.383-.383h.787a.4.4,0,0,1,.383.383v12.39h5.812a.384.384,0,0,1,.385.384v.585a.384.384,0,0,1-.385.383h-6.981a.383.383,0,0,1-.383-.383Z" transform="translate(412.061 -3142.373)" fill="#fff"/><path d="M-163.241,3155.316l6.134-13.581a.363.363,0,0,1,.344-.222h.2a.365.365,0,0,1,.344.222l6.093,13.581a.356.356,0,0,1-.342.524h-.808a.369.369,0,0,1-.342-.222l-1.494-3.329h-7.164l-1.474,3.329a.369.369,0,0,1-.342.222h-.808A.355.355,0,0,1-163.241,3155.316Zm9.584-4.278c-.988-2.2-1.957-4.419-2.946-6.619h-.161l-2.946,6.619Z" transform="translate(375.638 -3141.513)" fill="#fff"/><path d="M-82.55,3142.958a.382.382,0,0,1,.383-.383h5.227a4.336,4.336,0,0,1,4.4,4.3,4.5,4.5,0,0,1-2.986,4.116l2.764,5.126a.382.382,0,0,1-.343.585h-1.029a.348.348,0,0,1-.324-.182l-2.683-5.347H-81v5.146a.4.4,0,0,1-.383.383h-.787a.383.383,0,0,1-.383-.383Zm5.508,6.881a2.942,2.942,0,0,0,2.907-2.946,2.935,2.935,0,0,0-2.907-2.845h-3.914v5.792Z" transform="translate(310.271 -3142.373)" fill="#fff"/><path d="M-12.427,3142.958a.4.4,0,0,1,.383-.383h.807a.4.4,0,0,1,.384.383v13.358a.4.4,0,0,1-.384.383h-.807a.4.4,0,0,1-.383-.383Z" transform="translate(253.493 -3142.373)" fill="#fff"/><path d="M4.315,3154.9l.424-.484c.322-.3.485-.161.685.061a2.864,2.864,0,0,0,1.958,1.069c1.211,0,2.461-.888,2.461-3.027v-9.564a.382.382,0,0,1,.383-.383h.787a.384.384,0,0,1,.384.383v9.524c0,2.8-1.7,4.419-4.057,4.419a3.873,3.873,0,0,1-3.068-1.493A.425.425,0,0,1,4.315,3154.9Z" transform="translate(240.022 -3142.373)" fill="#fff"/><path d="M50.105,3155.316l6.134-13.581a.363.363,0,0,1,.343-.222h.2a.364.364,0,0,1,.343.222l6.094,13.581a.357.357,0,0,1-.344.524H62.07a.369.369,0,0,1-.342-.222l-1.494-3.329H53.071l-1.472,3.329a.373.373,0,0,1-.343.222h-.808A.355.355,0,0,1,50.105,3155.316Zm9.584-4.278c-.989-2.2-1.957-4.419-2.946-6.619h-.161l-2.946,6.619Z" transform="translate(202.894 -3141.513)" fill="#fff"/></g></g><g transform="translate(-2047.064 2724.109)"><path d="M-1889.693,2787.317a41.437,41.437,0,0,0-41.437,41.437,41.437,41.437,0,0,0,41.437,41.437,41.437,41.437,0,0,0,41.437-41.437A41.437,41.437,0,0,0-1889.693,2787.317Zm-7.084,12.82c4.485,0,7.946.745,10.32,2.23,2.409,1.46,3.6,3.313,3.6,5.543a6.069,6.069,0,0,1-2.97,5.373c-1.977,1.346-4.713,2.121-8.289,2.384v.1c4.311.149,7.544.938,9.66,2.344a6.764,6.764,0,0,1,3.2,5.011,6.726,6.726,0,0,1,.035.859,9.168,9.168,0,0,1-.075,1.078,6.4,6.4,0,0,1-.482,1.852,6.958,6.958,0,0,1-1.038,1.674c-1.892,2.229-5.542,3.536-10.921,3.868.08-.228.139-.5.228-.709a6.463,6.463,0,0,0,2.374-1.421,6.586,6.586,0,0,0,1.887-3.893,10.446,10.446,0,0,0,.228-1.967v-.457a8.16,8.16,0,0,0-.154-1.7,6.354,6.354,0,0,0-2-4.385,7.675,7.675,0,0,0-5.463-1.967v-.368a5.6,5.6,0,0,0,4.346-1.887,8.97,8.97,0,0,0,1.753-5.845,7.876,7.876,0,0,0-1.713-5.493,5.878,5.878,0,0,0-4.525-1.887Zm-12.113,32.42v-.179c1.41-.442,2.106-2.6,2.106-6.466v-19.081c0-3.829-.7-5.984-2.106-6.466v-.229h9.476v25.969a16.708,16.708,0,0,0-1.967,1.733,16.343,16.343,0,0,0-3.119,4.718Zm19.935,24.812a16.444,16.444,0,0,1-11.095-4.966,15.208,15.208,0,0,1-4.1-8.84v-.01c-.1-1.192-.139-2.816-.139-2.816a17.961,17.961,0,0,1,1.043-6.317,11.525,11.525,0,0,1,.785-1.862,13.217,13.217,0,0,1,2.448-3.412,4.185,4.185,0,0,1,.6-.556,10.205,10.205,0,0,1,1.848-1.56,15.875,15.875,0,0,1,6.645-2.637,2.728,2.728,0,0,1-.025.735,3.7,3.7,0,0,0-.417.3,8.352,8.352,0,0,0-.864.775,14.673,14.673,0,0,0-3.551,6.908,19.1,19.1,0,0,0-.517,2.831,36.867,36.867,0,0,0-.268,4.792c0,4.792.67,8.606,2.041,11.438,1.346,2.786,3.233,4.425,5.567,4.867Zm14.238-4.932a16.258,16.258,0,0,1-11.07,4.932v-.253a5.478,5.478,0,0,0,1.674-.6,9.146,9.146,0,0,0,3.894-4.311c1.37-2.811,2.041-6.6,2.041-11.437,0-4.792-.671-8.622-2.041-11.433-.114-.228-.229-.457-.328-.636a8.347,8.347,0,0,0,1.038-2.98,15.425,15.425,0,0,1,4.792,3.422c2.816,2.979,4.221,6.833,4.221,11.626S-1871.9,2849.434-1874.718,2852.438Z" transform="translate(1953.194 -2775.288)" fill="#fff"/><path d="M-1919.847,2778.211a16.192,16.192,0,0,1-.117,2.042c-.048.421-.1.869-.2,1.342-.109.47-.235.96-.391,1.46a14.446,14.446,0,0,1-.556,1.512,13.714,13.714,0,0,1-.808,1.481,11.2,11.2,0,0,1-.965,1.326,13.457,13.457,0,0,1-1.082,1.085,11.819,11.819,0,0,1-2.094,1.525,13.451,13.451,0,0,1-1.634.787c-.061.021-.113.043-.165.065a58.025,58.025,0,0,1-1.881,6.613c.1-.125.2-.256.3-.387.152-.2.3-.4.456-.591a13.536,13.536,0,0,1,1.043-1.168c.192-.191.387-.374.583-.556s.378-.352.569-.521c.387-.334.778-.643,1.169-.93.8-.569,1.534-1.056,2.194-1.443s1.243-.682,1.656-.877.656-.287.656-.287a17.515,17.515,0,0,1-.678,2.75,18.8,18.8,0,0,1-1.186,2.607,13.965,13.965,0,0,1-1.986,2.62,12.7,12.7,0,0,1-2.524,1.895,13.529,13.529,0,0,1-2.4,1.012,10.879,10.879,0,0,1-1.646.387c-.043.1-.087.2-.135.3a52.739,52.739,0,0,1-2.7,5.145c.07-.056.143-.113.217-.169.4-.309.839-.6,1.277-.9a14.948,14.948,0,0,1,1.355-.791c.461-.234.922-.443,1.352-.643a20.94,20.94,0,0,1,2.459-.913q.28-.085.535-.156c.165-.048.326-.091.474-.135.3-.083.565-.148.782-.2.439-.1.7-.139.7-.139s-.1.274-.3.73a13.771,13.771,0,0,1-.973,1.8c-.222.356-.469.738-.748,1.125-.3.378-.621.765-.978,1.151a13.9,13.9,0,0,1-1.147,1.121,14.318,14.318,0,0,1-1.36.987c-.239.147-.478.291-.717.421l-.356.187c-.122.057-.248.108-.37.161a12.759,12.759,0,0,1-1.429.513c-.465.134-.912.238-1.334.317a12.072,12.072,0,0,1-1.212.139,13.447,13.447,0,0,1-1.351.026,49.422,49.422,0,0,1-3.8,4.449c.378-.178.778-.347,1.195-.5.5-.187,1.021-.326,1.5-.465s.974-.248,1.447-.334.934-.156,1.373-.208.843-.1,1.225-.135c.761-.061,1.4-.074,1.855-.074s.717.026.717.026-.156.243-.456.639c-.148.2-.335.435-.556.7a9.982,9.982,0,0,1-.769.852c-.3.3-.634.6-.995.917-.178.152-.369.308-.565.465-.1.078-.2.156-.3.234s-.213.144-.321.217a15.867,15.867,0,0,1-1.377.826c-.239.13-.487.252-.739.365a7.873,7.873,0,0,1-.791.3,12.035,12.035,0,0,1-1.577.426q-.385.078-.756.13c-.252.03-.5.048-.747.061a13.632,13.632,0,0,1-2.581-.118,10.6,10.6,0,0,1-1.221-.247,50.809,50.809,0,0,1-4.844,3.476,11.6,11.6,0,0,1,1.347-.217,16.243,16.243,0,0,1,3.05-.13,22.583,22.583,0,0,1,2.6.235c.76.108,1.4.252,1.838.347s.686.174.686.174-.052.052-.148.144-.235.234-.43.387a18.684,18.684,0,0,1-1.638,1.208c-.174.113-.356.23-.547.348s-.4.222-.613.331c-.426.217-.882.43-1.36.625-.239.1-.482.2-.734.282s-.517.157-.786.226a14.461,14.461,0,0,1-1.634.317,9.468,9.468,0,0,1-1.638.056,12.506,12.506,0,0,1-1.5-.143c-.239-.039-.469-.078-.691-.13s-.443-.113-.656-.174c-.417-.121-.8-.256-1.152-.4a11.331,11.331,0,0,1-1.26-.569,55.6,55.6,0,0,1-5.679,2.372c.543.009,1.108.035,1.677.083a14.9,14.9,0,0,1,1.555.23c.252.056.5.1.739.156s.478.108.708.169a22.554,22.554,0,0,1,2.5.825c.713.27,1.3.53,1.7.726s.634.33.634.33-.243.152-.678.387c-.217.117-.487.252-.8.4s-.669.274-1.064.417a13.728,13.728,0,0,1-2.746.712c-.513.078-1.047.135-1.59.166l-.408.013c-.139,0-.278-.008-.422-.018-.278-.013-.56-.035-.839-.065a12.7,12.7,0,0,1-1.608-.291,11.233,11.233,0,0,1-1.438-.5,12.8,12.8,0,0,1-2.281-1.221c-.443-.308-.808-.6-1.1-.852-.213.057-.426.113-.643.166-.109.021-6.317,1.177-12.809,3.1a28.513,28.513,0,0,1,8.16,4.319.957.957,0,0,1,.1,1.351.962.962,0,0,1-.726.33.957.957,0,0,1-.626-.234c-2.112-1.825-5.9-3.458-9.941-4.81-4.041,1.352-7.829,2.985-9.941,4.81a.957.957,0,0,1-.626.234.947.947,0,0,1-.722-.33.957.957,0,0,1,.1-1.351,28.4,28.4,0,0,1,8.16-4.319c-6.491-1.925-12.7-3.081-12.813-3.1-.213-.052-.426-.108-.639-.166-.291.248-.661.543-1.1.852a12.81,12.81,0,0,1-2.281,1.221,11.294,11.294,0,0,1-1.442.5,12.627,12.627,0,0,1-1.6.291c-.282.03-.565.052-.843.065-.139.009-.278.013-.417.018l-.413-.013c-.543-.031-1.078-.087-1.59-.166a13.728,13.728,0,0,1-2.746-.712c-.391-.144-.752-.278-1.065-.417s-.573-.282-.795-.4c-.435-.235-.678-.387-.678-.387s.226-.13.634-.33.995-.456,1.708-.726a22.489,22.489,0,0,1,2.494-.825c.235-.061.469-.117.708-.169s.491-.1.743-.156a14.735,14.735,0,0,1,1.556-.23c.569-.048,1.13-.074,1.673-.083a56.489,56.489,0,0,1-5.679-2.368,12.443,12.443,0,0,1-1.256.565,12.112,12.112,0,0,1-1.156.4c-.208.061-.426.122-.651.174s-.456.091-.691.13a12.5,12.5,0,0,1-1.508.143,9.432,9.432,0,0,1-1.634-.056,14.339,14.339,0,0,1-1.638-.317c-.265-.069-.525-.143-.782-.226s-.5-.182-.739-.282c-.478-.2-.93-.409-1.356-.625-.213-.109-.417-.222-.613-.331s-.378-.234-.552-.348a19.4,19.4,0,0,1-1.638-1.208,4.944,4.944,0,0,1-.426-.387c-.1-.091-.147-.144-.147-.144s.247-.074.687-.174,1.073-.239,1.833-.347a22.656,22.656,0,0,1,2.6-.235,16.243,16.243,0,0,1,3.05.13,12.831,12.831,0,0,1,1.338.213,49.849,49.849,0,0,1-4.836-3.471h0a10.787,10.787,0,0,1-1.221.247,13.612,13.612,0,0,1-2.581.118c-.243-.013-.491-.031-.743-.061s-.5-.078-.756-.13a12.274,12.274,0,0,1-1.581-.426,7.91,7.91,0,0,1-.791-.3c-.252-.113-.495-.234-.738-.365a15.791,15.791,0,0,1-1.377-.826c-.1-.074-.213-.148-.317-.217l-.3-.234c-.2-.157-.383-.313-.565-.465-.361-.313-.691-.622-.99-.917a10.124,10.124,0,0,1-.773-.852c-.217-.261-.4-.5-.556-.7-.3-.4-.452-.639-.452-.639s.261-.022.713-.026,1.1.013,1.859.074c.382.031.782.083,1.221.135s.9.117,1.373.208.96.2,1.447.334,1,.278,1.5.465c.413.148.812.313,1.19.491a48.637,48.637,0,0,1-3.793-4.449,12.117,12.117,0,0,1-1.351-.021c-.374-.026-.786-.065-1.217-.139s-.869-.183-1.329-.317a12.855,12.855,0,0,1-1.434-.513c-.122-.052-.243-.1-.369-.161s-.235-.126-.356-.187c-.239-.13-.478-.273-.717-.421a14.885,14.885,0,0,1-1.36-.987,14.629,14.629,0,0,1-1.147-1.121c-.352-.387-.678-.773-.973-1.151-.278-.387-.53-.769-.752-1.125a13.775,13.775,0,0,1-.973-1.8c-.2-.456-.291-.73-.291-.73s.256.04.7.139q.333.072.782.2l.478.135q.254.072.534.156a21.2,21.2,0,0,1,2.459.913c.426.2.891.408,1.347.643a14.935,14.935,0,0,1,1.356.791c.439.3.878.6,1.281.9.074.057.148.113.217.169a52.681,52.681,0,0,1-2.7-5.145c-.048-.1-.092-.2-.135-.3a11.568,11.568,0,0,1-1.651-.391,13.527,13.527,0,0,1-2.4-1.012,12.822,12.822,0,0,1-2.524-1.895,14.156,14.156,0,0,1-1.986-2.62,19.9,19.9,0,0,1-1.186-2.607,18.149,18.149,0,0,1-.678-2.75s.248.1.66.287.991.486,1.651.877,1.4.874,2.194,1.443c.391.287.786.6,1.169.93q.293.254.574.521c.191.183.391.365.582.556a15.111,15.111,0,0,1,1.043,1.168c.161.2.3.4.456.591.1.13.2.261.3.387a58.051,58.051,0,0,1-1.877-6.613c-.052-.022-.1-.043-.165-.065a12.853,12.853,0,0,1-1.634-.787,11.694,11.694,0,0,1-2.1-1.525,13.405,13.405,0,0,1-1.077-1.085,11.24,11.24,0,0,1-.969-1.326,14.6,14.6,0,0,1-.808-1.481,14.528,14.528,0,0,1-.556-1.512c-.152-.5-.282-.99-.386-1.46s-.152-.921-.2-1.342a16.051,16.051,0,0,1-.113-2.042c.013-.5.048-.782.048-.782s.213.144.565.426c.178.139.387.313.621.517s.513.439.8.7a21.449,21.449,0,0,1,1.825,1.894c.3.365.635.752.943,1.165a14.113,14.113,0,0,1,.886,1.308c.143.23.261.46.4.687s.256.46.374.687c.23.452.43.9.6,1.342.044.122.091.239.139.356a62.443,62.443,0,0,1-.665-7.473,1.244,1.244,0,0,1-.1-.069c-.183-.126-.4-.278-.643-.465s-.5-.408-.773-.665a13.725,13.725,0,0,1-1.725-1.951,9.5,9.5,0,0,1-.8-1.295,12.924,12.924,0,0,1-.678-1.507c-.1-.27-.2-.543-.265-.812s-.13-.539-.187-.812c-.109-.539-.183-1.078-.235-1.6a11.169,11.169,0,0,1-.043-1.512c.013-.478.039-.934.078-1.355.017-.213.039-.413.065-.6s.061-.37.091-.539c.065-.339.13-.634.191-.877.113-.487.2-.761.2-.761s.178.191.469.543.678.869,1.108,1.508.93,1.4,1.382,2.255c.23.426.452.874.652,1.342s.426.965.6,1.473a14.482,14.482,0,0,1,.435,1.507c.091.343.174.682.239,1.013a56.89,56.89,0,0,1,.8-6.961,12.629,12.629,0,0,1-.921-1.172,11.826,11.826,0,0,1-1.26-2.291,13.8,13.8,0,0,1-.5-1.446c-.074-.256-.143-.521-.2-.8s-.091-.543-.126-.826a13.8,13.8,0,0,1-.087-1.69c0-.273,0-.552.03-.821s.061-.53.1-.791a14.624,14.624,0,0,1,.66-2.789c.278-.8.556-1.447.765-1.9.226-.443.382-.691.382-.691s.13.226.326.634.478,1,.769,1.721a21.571,21.571,0,0,1,.834,2.5,16.773,16.773,0,0,1,.6,3.028c.056.457.1.9.109,1.33a33.479,33.479,0,0,1,1.99-4.893c.087-.173.178-.348.269-.521-.056-.1-.113-.213-.174-.331-.069-.134-.139-.282-.213-.443s-.139-.317-.209-.5a13.913,13.913,0,0,1-.721-2.511,9.461,9.461,0,0,1-.169-1.521,11.863,11.863,0,0,1,.035-1.655,9.744,9.744,0,0,1,.282-1.66c.135-.534.291-1.056.469-1.551a17.052,17.052,0,0,1,1.251-2.568,10.94,10.94,0,0,1,.634-.96c.2-.278.387-.517.539-.708.308-.391.5-.6.5-.6s.083.252.2.695.248,1.082.365,1.847c.061.382.113.791.161,1.233s.1.913.122,1.4.035.991.022,1.5c-.013.256-.022.517-.035.782s-.031.535-.057.8a15.268,15.268,0,0,1-.248,1.551c-.048.23-.091.457-.139.678,1.177-1.838,2.428-3.58,3.719-5.218-.009-.022-.013-.044-.022-.065a13.312,13.312,0,0,1-.422-1.773,11.038,11.038,0,0,1-.148-1.225,13.277,13.277,0,0,1-.013-1.386,14,14,0,0,1,.152-1.529,10.765,10.765,0,0,1,.4-1.6,14.492,14.492,0,0,1,.626-1.568,14.349,14.349,0,0,1,.8-1.391c.287-.434.578-.852.878-1.225s.608-.7.9-1a12.869,12.869,0,0,1,1.5-1.381c.391-.3.63-.46.63-.46s.022.265.03.717,0,1.095-.043,1.876a21.078,21.078,0,0,1-.3,2.633c-.039.239-.087.478-.139.721s-.1.5-.161.756a14.518,14.518,0,0,1-.439,1.521c-.087.256-.187.5-.278.743s-.187.491-.287.725c-.2.461-.413.891-.634,1.3,1.7-1.894,3.415-3.619,5.079-5.166a11.553,11.553,0,0,1-.008-1.668,13.291,13.291,0,0,1,.4-2.589,12.807,12.807,0,0,1,1.221-2.933,13.624,13.624,0,0,1,.965-1.368c.169-.218.348-.426.526-.63.091-.1.183-.2.27-.295s.191-.183.283-.274c.378-.356.756-.687,1.129-.986a11.209,11.209,0,0,1,1.091-.795,19.773,19.773,0,0,1,1.764-1.008c.222-.109.4-.2.521-.243s.191-.074.191-.074-.008.065-.026.183-.057.3-.1.526c-.087.452-.226,1.09-.443,1.838-.1.369-.23.769-.374,1.186-.074.208-.152.421-.235.634s-.165.448-.256.674c-.178.452-.382.917-.608,1.377s-.5.9-.765,1.381c-.134.222-.269.435-.4.644,1.59-1.265,3.02-2.312,4.193-3.128.013-.018.026-.039.043-.061a13.312,13.312,0,0,1,1.764-1.907q.274-.241.574-.482a7.3,7.3,0,0,1,.63-.456,12.7,12.7,0,0,1,1.425-.808,11.878,11.878,0,0,1,3.115-.991c.256-.048.508-.087.756-.126s.491-.048.726-.065c.478-.026.925-.039,1.347-.035s.8.009,1.143.043.634.079.878.113c.487.078.765.144.765.144s-.174.2-.5.517-.791.764-1.377,1.251a24.228,24.228,0,0,1-2.1,1.6c-.4.274-.821.521-1.269.782a15.159,15.159,0,0,1-1.395.739c-.243.113-.487.213-.726.309-.121.043-.239.091-.361.135s-.239.091-.356.139c-.478.178-.943.331-1.395.452-.9.227-1.747.435-2.477.543-.221.039-.434.065-.634.087-1.451,1.025-3.237,2.368-5.205,4.015a10.02,10.02,0,0,1,2.616-.539,8.333,8.333,0,0,1,1.481.035,12.656,12.656,0,0,1,1.369.226c.217.052.422.1.626.165s.408.135.6.2c.382.144.734.3,1.056.447a12.461,12.461,0,0,1,1.486.834c.174.113.308.213.4.282s.139.108.139.108l-.517.292a11.7,11.7,0,0,1-1.4.639c-.3.1-.617.248-.964.36a11.529,11.529,0,0,1-1.121.326c-.1.021-.2.043-.308.069s-.2.048-.3.074c-.2.048-.417.091-.639.126a10.488,10.488,0,0,1-1.377.152,14,14,0,0,1-2.772-.074,20.794,20.794,0,0,1-2.407-.382c-.526-.113-.99-.239-1.364-.343-1.26,1.173-2.551,2.446-3.841,3.823.1-.043.2-.087.309-.13.23-.091.478-.165.721-.234a10.6,10.6,0,0,1,1.451-.3c.235-.031.465-.057.7-.07s.465-.013.686-.013a12.578,12.578,0,0,1,2.4.282,11.514,11.514,0,0,1,1.646.5c.391.148.608.256.608.256a5.762,5.762,0,0,1-.443.4c-.3.226-.7.578-1.23.943-.265.183-.556.369-.878.552s-.647.4-1.012.582-.756.361-1.173.526a10.8,10.8,0,0,1-1.295.469c-.456.139-.939.234-1.381.33s-.9.166-1.343.217-.873.083-1.286.1-.791.039-1.156.043c-.43.009-.821,0-1.156-.013-1.2,1.508-2.368,3.1-3.472,4.784a12.239,12.239,0,0,1,1.234-.8q.333-.182.665-.339c.113-.052.221-.1.335-.152s.23-.087.343-.126a11.354,11.354,0,0,1,1.342-.377,10.722,10.722,0,0,1,1.251-.209c.4-.039.791-.052,1.147-.052a13.312,13.312,0,0,1,1.707.117c.413.061.648.113.648.113s-.113.191-.339.491c-.117.152-.256.33-.426.53s-.378.413-.582.656a13.67,13.67,0,0,1-1.6,1.525,12.233,12.233,0,0,1-1.008.786c-.369.252-.773.491-1.177.735a12.431,12.431,0,0,1-1.269.634c-.43.183-.865.343-1.273.5a19.828,19.828,0,0,1-2.342.691l-.973.208c-.239.052-.456.091-.647.122-.074.139-.143.274-.213.413a33.176,33.176,0,0,0-2.229,5.744,11.287,11.287,0,0,1,1.607-1.864,10.875,10.875,0,0,1,2.4-1.573,12.4,12.4,0,0,1,2.3-.782,11.25,11.25,0,0,1,1.686-.266c.417-.034.665-.03.665-.03s-.078.2-.243.547a12.377,12.377,0,0,1-.7,1.386,19.428,19.428,0,0,1-1.225,1.838c-.126.165-.256.326-.4.491s-.274.334-.421.5a12.271,12.271,0,0,1-.982.982c-.182.156-.37.313-.556.46s-.361.3-.543.435c-.369.282-.747.539-1.125.778-.769.469-1.486.873-2.133,1.2-.548.274-1.038.486-1.421.643a54.455,54.455,0,0,0-.691,5.609,11.417,11.417,0,0,1,.739-1.194,9.076,9.076,0,0,1,.943-1.143,12.044,12.044,0,0,1,1.052-.93,10.884,10.884,0,0,1,2.05-1.278,12.283,12.283,0,0,1,1.6-.634c.4-.125.634-.182.634-.182s-.026.222-.1.591c-.039.187-.091.408-.161.661-.039.126-.078.26-.117.4s-.074.291-.122.448c-.091.3-.2.639-.335.982s-.3.708-.456,1.086a12.035,12.035,0,0,1-.582,1.151c-.113.2-.23.391-.361.586s-.248.391-.387.591a12.28,12.28,0,0,1-.873,1.125c-.3.353-.639.691-.934,1.008a20.107,20.107,0,0,1-1.821,1.646c-.282.23-.556.435-.795.613-.035.026-.07.052-.1.078.039,1.747.156,3.524.356,5.322,0-.017.013-.039.017-.056a6.52,6.52,0,0,1,.274-.713,11.3,11.3,0,0,1,.691-1.329,8.706,8.706,0,0,1,.808-1.134,12.714,12.714,0,0,1,1.734-1.708q.41-.333.769-.573c.243-.161.465-.3.647-.4a6.237,6.237,0,0,1,.587-.312s.017.217.013.6.013.917-.048,1.56c-.026.322-.074.673-.13,1.039s-.1.756-.191,1.16-.2.825-.343,1.255a11.01,11.01,0,0,1-.456,1.312c-.182.443-.409.878-.626,1.291s-.439.808-.678,1.186c-.469.756-1,1.442-1.43,2.007-.234.3-.461.578-.665.817.391,1.808.865,3.615,1.438,5.414.026-.352.069-.708.126-1.064.048-.252.091-.5.156-.734s.143-.482.226-.708a11.747,11.747,0,0,1,.547-1.291,10.808,10.808,0,0,1,1.321-2.046,12.558,12.558,0,0,1,1.164-1.264c.3-.287.491-.435.491-.435a10.206,10.206,0,0,1,.434,2.112,12.424,12.424,0,0,1,.165,2.211,12.766,12.766,0,0,1-.217,2.676,14.228,14.228,0,0,1-.73,2.707,20.037,20.037,0,0,1-.939,2.273c-.221.456-.434.86-.613,1.19.078.178.156.356.239.535a51.468,51.468,0,0,0,2.668,5.066c-.039-.148-.074-.3-.1-.457a8.3,8.3,0,0,1-.182-1.495,10.636,10.636,0,0,1,.057-1.5,8.275,8.275,0,0,1,.248-1.377,12.722,12.722,0,0,1,.834-2.29c.078-.156.152-.308.226-.452l.234-.4c.152-.252.291-.469.409-.643.239-.348.4-.539.4-.539s.109.191.27.534.4.821.617,1.425c.109.3.222.634.322,1,.117.348.226.726.321,1.13s.161.83.226,1.273a11.56,11.56,0,0,1,.148,1.386c.008.243.013.486.008.725s-.013.478-.017.713c-.017.465-.057.921-.113,1.368s-.122.878-.2,1.291-.148.787-.23,1.143c-.148.661-.3,1.225-.435,1.638a47.622,47.622,0,0,0,4.471,5.079,11.212,11.212,0,0,1-.53-1.017,11.46,11.46,0,0,1-.491-1.43,8.779,8.779,0,0,1-.278-1.464,12.051,12.051,0,0,1-.052-1.408,12.735,12.735,0,0,1,.1-1.282c.052-.4.139-.791.217-1.139a13.161,13.161,0,0,1,.517-1.655c.152-.391.261-.608.261-.608a5.752,5.752,0,0,1,.391.452c.117.147.256.33.408.543s.309.465.5.726.365.556.548.882c.091.161.182.33.269.508.043.086.087.178.13.269s.1.178.139.27a11.046,11.046,0,0,1,.517,1.182c.078.208.152.43.222.652s.148.443.209.678a11.3,11.3,0,0,1,.309,1.395c.039.235.074.469.1.7s.061.447.087.669a20.847,20.847,0,0,1,.1,2.473c-.009.738-.03,1.342-.07,1.777a.065.065,0,0,1,0,.031,48.678,48.678,0,0,0,5.34,3.719l-.156-.182q-.228-.281-.443-.574a11.346,11.346,0,0,1-.8-1.264,11.184,11.184,0,0,1-.943-2.733,12.3,12.3,0,0,1-.2-2.442,11.1,11.1,0,0,1,.139-1.721c.069-.417.13-.661.13-.661l.122.1c.083.057.2.157.348.27a11.861,11.861,0,0,1,1.164,1.025,15.5,15.5,0,0,1,2.941,3.884c.217.443.43.856.6,1.29s.339.865.478,1.295c.065.218.13.43.191.639s.122.408.174.6c.109.4.2.778.278,1.139.143.656.239,1.234.3,1.664a55.564,55.564,0,0,0,5.826,2.39,8.768,8.768,0,0,1-1.595-1.5,11.305,11.305,0,0,1-.869-1.2,6.748,6.748,0,0,1-.352-.621c-.1-.213-.2-.422-.291-.63a12.585,12.585,0,0,1-.743-2.312,13.432,13.432,0,0,1-.226-1.729c-.026-.421-.017-.669-.017-.669s.2.079.539.248c.165.083.365.187.591.317s.486.26.76.425a20.965,20.965,0,0,1,1.8,1.269,11.457,11.457,0,0,1,.96.855l.239.244.243.239c.161.166.317.339.474.521a12.611,12.611,0,0,1,.864,1.139c.27.386.522.755.752,1.143a21.518,21.518,0,0,1,1.143,2.189c.291.609.513,1.152.665,1.551.139.039.282.074.422.109a132.256,132.256,0,0,1,15.442,3.906,132.21,132.21,0,0,1,15.446-3.906c.139-.035.278-.07.417-.109.152-.4.378-.942.665-1.551a22.336,22.336,0,0,1,1.143-2.189c.23-.387.487-.756.752-1.143a12.567,12.567,0,0,1,.864-1.139c.156-.182.317-.356.478-.521l.239-.239.239-.244c.322-.317.643-.6.96-.855a20.946,20.946,0,0,1,1.8-1.269c.274-.165.534-.3.76-.425s.426-.235.6-.317c.335-.169.539-.248.539-.248s0,.248-.022.669a13.471,13.471,0,0,1-.226,1.729,12.277,12.277,0,0,1-.743,2.312c-.087.208-.187.417-.291.63a6.709,6.709,0,0,1-.348.621,11.429,11.429,0,0,1-.873,1.2,8.772,8.772,0,0,1-1.595,1.5,55.658,55.658,0,0,0,5.831-2.394c.061-.43.152-1,.291-1.66.078-.361.17-.743.278-1.139.057-.2.113-.4.178-.6s.121-.421.191-.639c.134-.43.3-.865.474-1.295s.391-.847.6-1.29a15.6,15.6,0,0,1,2.946-3.884,11.369,11.369,0,0,1,1.164-1.025c.152-.113.261-.213.343-.27s.126-.1.126-.1.061.243.13.661a12.362,12.362,0,0,1,.139,1.721,12.308,12.308,0,0,1-.208,2.442,11.193,11.193,0,0,1-.943,2.733,11.388,11.388,0,0,1-.8,1.264c-.148.2-.3.387-.448.574q-.072.091-.156.182a48.718,48.718,0,0,0,5.344-3.719.067.067,0,0,1,0-.031c-.039-.435-.061-1.039-.074-1.777a20.9,20.9,0,0,1,.109-2.473c.022-.222.052-.443.083-.669s.061-.465.1-.7a13.15,13.15,0,0,1,.309-1.395c.065-.234.143-.452.208-.678s.143-.443.222-.652a11.864,11.864,0,0,1,.517-1.182c.048-.091.1-.183.139-.27s.087-.183.13-.269c.091-.179.183-.348.274-.508.182-.326.365-.617.547-.882s.339-.513.491-.726.291-.4.408-.543c.239-.3.391-.452.391-.452s.109.217.261.608a13.1,13.1,0,0,1,.517,1.655,10.02,10.02,0,0,1,.217,1.139,12.842,12.842,0,0,1,.1,1.282,13.032,13.032,0,0,1-.048,1.408,8.757,8.757,0,0,1-.282,1.464,10.84,10.84,0,0,1-.491,1.43,11.162,11.162,0,0,1-.526,1.017,47.436,47.436,0,0,0,4.467-5.075c-.126-.413-.282-.978-.434-1.643-.083-.356-.152-.734-.226-1.143s-.148-.847-.2-1.291-.091-.9-.108-1.368c0-.235-.013-.47-.018-.713s0-.482.009-.725a11.551,11.551,0,0,1,.143-1.386c.065-.443.135-.874.23-1.273a11.353,11.353,0,0,1,.321-1.13c.1-.361.209-.691.321-1,.217-.6.469-1.078.617-1.425s.269-.534.269-.534.156.191.391.539c.122.174.261.391.413.643.074.126.152.261.23.4s.152.3.226.452a13.055,13.055,0,0,1,.839,2.29,8.781,8.781,0,0,1,.248,1.377,12.12,12.12,0,0,1,.057,1.5,7.975,7.975,0,0,1-.187,1.495c-.031.152-.065.3-.1.448a51.113,51.113,0,0,0,2.663-5.058c.083-.178.161-.356.239-.535-.178-.33-.391-.734-.613-1.19a20.038,20.038,0,0,1-.934-2.273,13.9,13.9,0,0,1-.73-2.707,12.219,12.219,0,0,1-.218-2.676,12.444,12.444,0,0,1,.165-2.211,10.392,10.392,0,0,1,.43-2.112s.191.148.491.435a12.559,12.559,0,0,1,1.164,1.264,10.59,10.59,0,0,1,1.321,2.046,10.975,10.975,0,0,1,.548,1.291c.083.226.156.465.226.708s.113.482.156.734c.061.352.1.708.13,1.056.569-1.795,1.047-3.6,1.434-5.405-.2-.239-.43-.513-.665-.817-.43-.564-.96-1.251-1.429-2.007-.235-.378-.465-.773-.678-1.186s-.439-.848-.626-1.291a11.777,11.777,0,0,1-.456-1.312c-.135-.43-.252-.852-.339-1.255a11.009,11.009,0,0,1-.191-1.16c-.057-.365-.109-.717-.135-1.039a14.886,14.886,0,0,1-.043-1.56c0-.383.013-.6.013-.6s.222.1.586.313c.182.108.4.243.643.4s.5.352.769.573a12.733,12.733,0,0,1,1.738,1.708,8.752,8.752,0,0,1,.808,1.134,11.3,11.3,0,0,1,.687,1.329,7.63,7.63,0,0,1,.278.713c0,.018.009.03.013.048q.3-2.692.356-5.314c-.035-.026-.065-.052-.1-.078-.234-.178-.513-.382-.795-.613a20.091,20.091,0,0,1-1.817-1.646c-.3-.317-.634-.656-.938-1.008a12.278,12.278,0,0,1-.873-1.125c-.139-.2-.252-.4-.386-.591s-.248-.391-.361-.586a11.938,11.938,0,0,1-.578-1.151c-.156-.378-.326-.739-.461-1.086s-.243-.678-.334-.982c-.043-.157-.083-.3-.122-.448s-.078-.273-.113-.4c-.07-.252-.122-.474-.161-.661-.078-.369-.1-.591-.1-.591s.235.057.634.182a12.794,12.794,0,0,1,1.6.634,11.011,11.011,0,0,1,2.046,1.278,12.08,12.08,0,0,1,1.056.93,9.45,9.45,0,0,1,.943,1.143,12.112,12.112,0,0,1,.734,1.194,54.523,54.523,0,0,0-.69-5.609c-.382-.157-.873-.369-1.417-.643-.647-.326-1.364-.73-2.133-1.2-.378-.239-.76-.5-1.13-.778-.182-.139-.365-.282-.543-.435s-.374-.3-.552-.46a11.554,11.554,0,0,1-.982-.982c-.152-.165-.278-.339-.421-.5s-.278-.326-.4-.491a20.422,20.422,0,0,1-1.225-1.838,12.213,12.213,0,0,1-.7-1.386c-.165-.344-.243-.547-.243-.547s.243,0,.665.03a11.417,11.417,0,0,1,1.686.266,12.621,12.621,0,0,1,2.3.782,11.081,11.081,0,0,1,2.4,1.573,11.637,11.637,0,0,1,1.6,1.855,33.208,33.208,0,0,0-2.225-5.735c-.069-.139-.139-.273-.213-.413-.187-.03-.4-.07-.647-.122-.287-.061-.613-.13-.969-.208a19.622,19.622,0,0,1-2.346-.691c-.4-.156-.843-.317-1.273-.5a11.98,11.98,0,0,1-1.265-.634c-.4-.244-.812-.482-1.177-.735a12.382,12.382,0,0,1-1.012-.786,14.384,14.384,0,0,1-1.6-1.525c-.2-.243-.412-.457-.582-.656s-.308-.378-.422-.53c-.226-.3-.343-.491-.343-.491s.239-.052.648-.113a13.391,13.391,0,0,1,1.712-.117c.352,0,.743.013,1.143.052a10.771,10.771,0,0,1,1.256.209,11.3,11.3,0,0,1,1.338.377c.117.04.23.083.347.126s.222.1.33.152q.332.157.665.339a11.33,11.33,0,0,1,1.242.813c-1.1-1.686-2.272-3.285-3.476-4.792-.339.013-.73.022-1.16.013-.361,0-.739-.026-1.151-.043s-.847-.056-1.286-.1-.891-.122-1.343-.217-.926-.191-1.382-.33a10.513,10.513,0,0,1-1.3-.469c-.417-.165-.812-.339-1.177-.526s-.7-.387-1.008-.582-.617-.369-.878-.552c-.526-.365-.93-.717-1.23-.943s-.448-.4-.448-.4.217-.108.613-.256a11.177,11.177,0,0,1,1.647-.5,12.484,12.484,0,0,1,2.394-.282c.226,0,.456,0,.686.013s.465.039.7.07a10.876,10.876,0,0,1,1.451.3,7.207,7.207,0,0,1,.717.234c.1.039.2.083.3.126-1.286-1.377-2.576-2.651-3.836-3.819-.374.1-.839.23-1.365.343a20.706,20.706,0,0,1-2.4.382,14.04,14.04,0,0,1-2.776.074,10.493,10.493,0,0,1-1.377-.152c-.217-.035-.43-.079-.639-.126-.1-.026-.2-.052-.3-.074s-.2-.048-.3-.069a11.519,11.519,0,0,1-1.121-.326c-.352-.113-.665-.256-.964-.36a11.506,11.506,0,0,1-1.408-.639c-.326-.187-.517-.292-.517-.292s.048-.039.139-.108.23-.169.4-.282a12.935,12.935,0,0,1,1.49-.834c.317-.152.669-.3,1.056-.447.191-.07.387-.139.6-.2s.413-.113.63-.165a12.574,12.574,0,0,1,1.364-.226,8.345,8.345,0,0,1,1.482-.035,10.269,10.269,0,0,1,2.624.539c-1.968-1.643-3.758-2.989-5.209-4.015-.2-.022-.413-.048-.639-.087-.73-.108-1.573-.317-2.476-.543-.452-.121-.917-.273-1.39-.452-.122-.048-.239-.091-.361-.139s-.239-.092-.356-.135c-.244-.1-.487-.2-.73-.309a15.772,15.772,0,0,1-1.395-.739c-.443-.261-.865-.508-1.268-.782a24.175,24.175,0,0,1-2.094-1.6c-.591-.487-1.06-.93-1.381-1.251s-.5-.517-.5-.517.278-.065.769-.144c.243-.035.539-.078.878-.113s.726-.039,1.142-.043.869.009,1.343.035c.239.018.478.031.725.065s.5.078.756.126a11.777,11.777,0,0,1,3.115.991,12.717,12.717,0,0,1,1.425.808,6.693,6.693,0,0,1,.63.456q.3.241.574.482a13.387,13.387,0,0,1,1.768,1.907.577.577,0,0,1,.043.065c1.173.816,2.6,1.859,4.189,3.124-.135-.208-.27-.422-.4-.644-.269-.478-.534-.917-.76-1.381s-.435-.925-.613-1.377c-.091-.226-.174-.457-.256-.674s-.161-.426-.23-.634c-.148-.417-.27-.817-.378-1.186-.213-.748-.356-1.386-.443-1.838-.044-.226-.074-.4-.1-.526s-.03-.183-.03-.183l.191.074c.126.047.3.134.521.243a19.726,19.726,0,0,1,1.768,1.008,10.651,10.651,0,0,1,1.086.795c.374.3.756.63,1.13.986.1.091.187.182.282.274s.183.2.27.295c.182.2.356.413.53.63a13.582,13.582,0,0,1,.964,1.368,12.96,12.96,0,0,1,1.217,2.933,13.336,13.336,0,0,1,.4,2.589,12.108,12.108,0,0,1-.013,1.668c1.664,1.542,3.38,3.268,5.079,5.162a14.325,14.325,0,0,1-.63-1.295c-.1-.234-.2-.478-.291-.725s-.191-.487-.278-.743a14.518,14.518,0,0,1-.439-1.521c-.061-.252-.113-.5-.161-.756s-.1-.482-.139-.721a21.945,21.945,0,0,1-.3-2.633c-.039-.782-.057-1.416-.043-1.876s.03-.717.03-.717.239.161.63.46a12.493,12.493,0,0,1,1.5,1.381c.291.3.6.639.9,1s.587.791.873,1.225a15.287,15.287,0,0,1,.808,1.391,14.492,14.492,0,0,1,.626,1.568,10.209,10.209,0,0,1,.4,1.6,13.944,13.944,0,0,1,.152,1.529,13.252,13.252,0,0,1-.009,1.386,12.052,12.052,0,0,1-.148,1.225,13.2,13.2,0,0,1-.426,1.773c-.009.021-.013.043-.022.061,1.295,1.642,2.546,3.38,3.724,5.222-.048-.221-.091-.447-.139-.678a14.131,14.131,0,0,1-.248-1.551c-.031-.27-.048-.539-.061-.8s-.022-.525-.03-.782c-.017-.513-.009-1.017.017-1.5s.069-.956.121-1.4.1-.852.161-1.233c.117-.765.257-1.4.369-1.847s.191-.695.191-.695.2.209.5.6c.156.191.339.43.539.708a10.92,10.92,0,0,1,.639.96,17.975,17.975,0,0,1,1.251,2.568c.174.5.335,1.017.465,1.551a9.757,9.757,0,0,1,.287,1.66,13.316,13.316,0,0,1,.035,1.655,10.034,10.034,0,0,1-.17,1.521,13.864,13.864,0,0,1-.726,2.511c-.069.178-.139.343-.2.5s-.148.309-.217.443c-.057.117-.113.227-.17.326.092.174.178.348.27.525a33.633,33.633,0,0,1,1.99,4.906,13.174,13.174,0,0,1,.109-1.343,16.393,16.393,0,0,1,.6-3.028,21.514,21.514,0,0,1,.839-2.5c.287-.722.573-1.316.765-1.721s.33-.634.33-.634.152.248.378.691a20.191,20.191,0,0,1,.765,1.9,14.291,14.291,0,0,1,.66,2.789c.039.261.07.526.1.791s.031.548.035.821a14.807,14.807,0,0,1-.091,1.69c-.035.283-.069.556-.126.826s-.126.539-.2.8a13.768,13.768,0,0,1-.5,1.446,11.82,11.82,0,0,1-1.26,2.291,12.878,12.878,0,0,1-.917,1.177,57.676,57.676,0,0,1,.8,6.957c.065-.331.148-.669.239-1.013a14.48,14.48,0,0,1,.434-1.507c.174-.508.391-1,.6-1.473s.422-.917.652-1.342c.452-.856.969-1.621,1.382-2.255.43-.639.826-1.152,1.112-1.508s.469-.543.469-.543.087.274.2.761c.056.243.122.539.187.877.031.169.069.348.1.539s.044.391.061.6c.039.421.07.877.083,1.355a11.232,11.232,0,0,1-.048,1.512,15.079,15.079,0,0,1-.235,1.6c-.052.273-.113.543-.187.813a8.374,8.374,0,0,1-.265.813,13.784,13.784,0,0,1-.673,1.507,10,10,0,0,1-.8,1.295,13.472,13.472,0,0,1-1.729,1.951c-.274.257-.53.474-.769.665s-.461.339-.643.465c-.039.026-.074.048-.109.069a62.494,62.494,0,0,1-.665,7.473c.048-.117.1-.234.139-.356a14.447,14.447,0,0,1,.608-1.342c.113-.227.239-.457.369-.687s.257-.456.4-.687a14.958,14.958,0,0,1,.886-1.308c.308-.413.647-.8.947-1.165a20.308,20.308,0,0,1,1.825-1.894c.282-.261.556-.5.8-.7s.443-.378.621-.517c.352-.282.569-.426.569-.426S-1919.864,2777.716-1919.847,2778.211Z" transform="translate(2047.064 -2724.109)" fill="#fff"/></g></g></svg>