<svg xmlns="http://www.w3.org/2000/svg" width="21.04" height="17.174" viewBox="0 0 21.04 17.174"><g transform="translate(0 -36.648)"><g transform="translate(0 36.648)"><g transform="translate(0 0)"><path d="M56.848,206.161a2.738,2.738,0,0,1-2.7,0l-6.114-3.75s-.552-.338-.552.428v3.744c0,1.972,3.589,4.1,8.016,4.1s8.016-2.126,8.016-4.1v-3.955c0-.615-.392-.314-.392-.314Z" transform="translate(-44.978 -193.508)" fill="#284266"/><path d="M20.687,42.569a.566.566,0,0,0,0-1.048l-9.313-4.657a1.8,1.8,0,0,0-1.708,0L.352,41.521a.566.566,0,0,0,0,1.048l9.313,5.712a1.8,1.8,0,0,0,1.708,0" transform="translate(0 -36.648)" fill="#284266"/><path d="M357.357,192.2V185.9s0-.3-.173-.2a5.152,5.152,0,0,0-.614.38.53.53,0,0,0-.11.4V192.2a.168.168,0,0,1-.1.14,1.09,1.09,0,1,0,1.1,0A.162.162,0,0,1,357.357,192.2Z" transform="translate(-337.055 -177.817)" fill="#284266"/></g></g></g></svg>