<svg xmlns="http://www.w3.org/2000/svg" width="325.905" height="283.18" viewBox="0 0 325.905 283.18"><g transform="translate(0.2 195.308)"><path d="M480.062,888.659H462.455V849.136h14.014c7.3,0,12.517,4.552,12.517,11.017a9.356,9.356,0,0,1-2.935,7.127c4.374,1.616,7.007,4.971,7.007,9.762C493.057,883.868,487.669,888.659,480.062,888.659Zm-9.82-32.576v9.042h5.568c3.3,0,5.149-1.736,5.149-4.552s-1.853-4.491-5.149-4.491Zm9.22,15.689h-9.22v9.942h9.22c3.535,0,5.632-1.858,5.632-4.971C485.094,873.687,483,871.771,479.462,871.771Z" transform="translate(-462.455 -834.164)" fill="#f0f1f1"/><path d="M550.425,847.862c11.381-.239,21.26,9.162,21.079,20.479.181,11.32-9.7,20.721-21.079,20.482-11.376.239-21.137-9.162-20.957-20.482C529.287,857.024,539.049,847.623,550.425,847.862Zm.058,7.485c-7.3,0-12.692,5.391-12.692,12.994s5.388,12.995,12.692,12.995c7.246,0,12.7-5.388,12.7-12.995C563.18,860.857,557.729,855.347,550.483,855.347Z" transform="translate(-491.537 -833.609)" fill="#f0f1f1"/><path d="M638.26,847.863a19.8,19.8,0,0,1,16.647,8.563l-5.749,4.732a12.951,12.951,0,0,0-11.02-5.81c-7.543,0-12.692,5.451-12.692,12.994,0,7.665,5.33,13.236,13.175,13.236a12.455,12.455,0,0,0,10.42-4.91v-3.235h-10.9v-7.007h18.987V878.1a20.937,20.937,0,0,1-7.728,7.785,21.192,21.192,0,0,1-11.137,2.935c-11.62.239-21.318-9.162-21.138-20.482C616.883,856.967,626.581,847.683,638.26,847.863Z" transform="translate(-529.578 -833.611)" fill="#f0f1f1"/><path d="M705.505,849.135h12.936c12.517-.12,21.737,7.965,21.557,19.64.18,11.44-9.04,20.063-21.557,19.882H705.505Zm12.877,32.216c7.962,0,13.292-4.968,13.292-12.576,0-7.665-5.207-12.336-13.292-12.336h-4.793v24.912Z" transform="translate(-567.937 -834.163)" fill="#f0f1f1"/><path d="M802.671,882.958H786.5l-2.219,5.149H775.6l17.666-40.242h2.691l17.608,40.242h-8.684Zm-8.084-20-5.271,13.353h10.542Z" transform="translate(-598.36 -833.613)" fill="#f0f1f1"/><path d="M891.176,848.584v40.242h-2.691l-22.879-24.434v23.714h-8.084V847.865h2.638l22.932,24.312V848.584Z" transform="translate(-633.912 -833.613)" fill="#f0f1f1"/><path d="M938.286,849.136h8.084v39.522h-8.084Z" transform="translate(-668.963 -834.164)" fill="#f0f1f1"/><path d="M990.918,836.937a19.608,19.608,0,0,1,17.427,9.82l-6.109,4.313q-4.22-6.649-11.317-6.648c-7.368,0-12.756,5.51-12.756,13.055s5.389,12.934,12.756,12.934q7.094,0,11.317-6.646l6.109,4.31c-3.413,6.168-9.884,9.823-17.49,9.823-11.556.239-21.255-9.162-21.016-20.482C969.658,846.1,979.42,836.7,990.918,836.937Zm1.258-14.253h9.7v1.438l-8.2,9.7H987.8Z" transform="translate(-682.655 -822.684)" fill="#f0f1f1"/></g><g transform="translate(0 265.389)"><path d="M462.151,963.4l7.51-16.629a.445.445,0,0,1,.421-.272h.248a.445.445,0,0,1,.42.272l7.463,16.629a.437.437,0,0,1-.421.642h-.99a.452.452,0,0,1-.419-.272l-1.829-4.077h-8.772l-1.8,4.077a.457.457,0,0,1-.421.272h-.99A.435.435,0,0,1,462.151,963.4Zm11.736-5.238c-1.211-2.694-2.4-5.412-3.607-8.1h-.2l-3.607,8.1Z" transform="translate(-462.101 -946.502)" fill="#f0f1f1"/><path d="M495.339,947.409a.465.465,0,0,1,.445-.47h5.535a8.648,8.648,0,1,1,0,17.3h-5.535a.465.465,0,0,1-.445-.47Zm5.583,15.122a6.956,6.956,0,1,0,0-13.911h-3.706v13.911Z" transform="translate(-476.526 -946.692)" fill="#f0f1f1"/><path d="M523.564,947.581a.436.436,0,0,1,.421-.642h.988a.455.455,0,0,1,.42.272l6.152,13.837h.1l6.152-13.837a.485.485,0,0,1,.42-.272h.988a.437.437,0,0,1,.42.642l-7.513,16.629a.47.47,0,0,1-.421.272h-.246a.5.5,0,0,1-.42-.272Z" transform="translate(-488.754 -946.692)" fill="#f0f1f1"/><path d="M563.22,946.5a8.9,8.9,0,1,1-8.87,8.92A8.879,8.879,0,0,1,563.22,946.5Zm0,16.061a7.166,7.166,0,1,0-7.14-7.141A7.182,7.182,0,0,0,563.22,962.563Z" transform="translate(-502.136 -946.502)" fill="#f0f1f1"/><path d="M592.437,947.532a.585.585,0,0,1,.591-.593h.718a.6.6,0,0,1,.591.593v6.992l7.71-7.338a.732.732,0,0,1,.469-.247h1.211a.476.476,0,0,1,.3.865l-7.809,7.29,8.179,8.376a.487.487,0,0,1-.421.766h-1.259a.674.674,0,0,1-.445-.173l-7.933-8.278v7.858a.6.6,0,0,1-.591.593h-.718a.585.585,0,0,1-.591-.593Z" transform="translate(-518.666 -946.692)" fill="#f0f1f1"/><path d="M615.2,963.4l7.511-16.629a.444.444,0,0,1,.42-.272h.248a.447.447,0,0,1,.421.272l7.46,16.629a.435.435,0,0,1-.418.642h-.99a.452.452,0,0,1-.419-.272l-1.829-4.077h-8.772l-1.8,4.077a.453.453,0,0,1-.419.272h-.99A.435.435,0,0,1,615.2,963.4Zm11.735-5.238c-1.209-2.694-2.4-5.412-3.607-8.1h-.2l-3.607,8.1Z" transform="translate(-528.524 -946.502)" fill="#f0f1f1"/><path d="M647.352,948.595h-4.3a.469.469,0,0,1-.471-.469v-.717a.47.47,0,0,1,.471-.47h10.476a.469.469,0,0,1,.469.47v.717a.468.468,0,0,1-.469.469h-4.3v15.171a.487.487,0,0,1-.469.47h-.94a.485.485,0,0,1-.469-.47Z" transform="translate(-540.429 -946.692)" fill="#f0f1f1"/><path d="M665.5,961.451c.123-.148.247-.322.37-.469.247-.322.519-.519.865-.223a6.837,6.837,0,0,0,4.177,1.878c2,0,3.309-1.26,3.309-2.719,0-1.7-1.483-2.718-4.324-3.9-2.718-1.186-4.348-2.3-4.348-5.115,0-1.68,1.334-4.4,5.261-4.4a8.085,8.085,0,0,1,4.227,1.26.55.55,0,0,1,.147.84c-.1.148-.2.321-.3.47a.559.559,0,0,1-.865.222,6.918,6.918,0,0,0-3.238-1.137c-2.619,0-3.41,1.68-3.41,2.718,0,1.656,1.262,2.619,3.336,3.484,3.336,1.359,5.486,2.619,5.486,5.486,0,2.57-2.446,4.447-5.338,4.447a8.049,8.049,0,0,1-5.213-2A.542.542,0,0,1,665.5,961.451Z" transform="translate(-550.314 -946.502)" fill="#f0f1f1"/><path d="M690.843,947.532a.585.585,0,0,1,.591-.593h.718a.6.6,0,0,1,.592.593v6.992l7.71-7.338a.732.732,0,0,1,.469-.247h1.211a.476.476,0,0,1,.3.865l-7.809,7.29,8.179,8.376a.487.487,0,0,1-.421.766h-1.259a.673.673,0,0,1-.445-.173l-7.933-8.278v7.858a.6.6,0,0,1-.592.593h-.718a.585.585,0,0,1-.591-.593Z" transform="translate(-561.374 -946.692)" fill="#f0f1f1"/><path d="M713.608,963.4l7.511-16.629a.444.444,0,0,1,.42-.272h.248a.447.447,0,0,1,.421.272l7.46,16.629a.435.435,0,0,1-.418.642h-.99a.452.452,0,0,1-.419-.272l-1.829-4.077h-8.772l-1.8,4.077a.452.452,0,0,1-.419.272h-.99A.435.435,0,0,1,713.608,963.4Zm11.736-5.238c-1.209-2.694-2.4-5.412-3.607-8.1h-.2l-3.607,8.1Z" transform="translate(-571.232 -946.502)" fill="#f0f1f1"/><path d="M756.5,947.532a.585.585,0,0,1,.592-.593h.718a.6.6,0,0,1,.592.593v6.992l7.71-7.338a.735.735,0,0,1,.469-.247h1.211a.476.476,0,0,1,.3.865l-7.809,7.29,8.179,8.376a.487.487,0,0,1-.421.766h-1.259a.672.672,0,0,1-.445-.173l-7.933-8.278v7.858a.6.6,0,0,1-.592.593h-.718a.585.585,0,0,1-.592-.593Z" transform="translate(-589.867 -946.692)" fill="#f0f1f1"/><path d="M779.262,963.4l7.51-16.629a.445.445,0,0,1,.421-.272h.247a.446.446,0,0,1,.421.272l7.461,16.629a.435.435,0,0,1-.419.642h-.989a.453.453,0,0,1-.419-.272l-1.829-4.077h-8.772l-1.8,4.077a.451.451,0,0,1-.418.272h-.99A.435.435,0,0,1,779.262,963.4ZM791,958.165c-1.209-2.694-2.4-5.412-3.607-8.1h-.2l-3.607,8.1Z" transform="translate(-599.725 -946.502)" fill="#f0f1f1"/><path d="M812.447,946.947a.464.464,0,0,1,.469-.445h.617l11.144,13.887h.049v-13.17a.47.47,0,0,1,.47-.47h.865a.487.487,0,0,1,.469.47v16.629a.465.465,0,0,1-.469.444h-.445l-11.341-14.158h-.026v13.442a.469.469,0,0,1-.469.47h-.865a.485.485,0,0,1-.469-.47Z" transform="translate(-614.149 -946.502)" fill="#f0f1f1"/><path d="M852.95,946.5a8.689,8.689,0,0,1,5.979,2.3.479.479,0,0,1,.024.692l-.666.667c-.2.247-.4.223-.644-.025a7.48,7.48,0,0,0-4.718-1.853,7.107,7.107,0,0,0,0,14.207,7.19,7.19,0,0,0,4.718-1.852.466.466,0,0,1,.593-.075l.74.667a.47.47,0,0,1-.024.667,8.479,8.479,0,0,1-6,2.4,8.9,8.9,0,1,1,0-17.791Z" transform="translate(-627.855 -946.502)" fill="#f0f1f1"/><path d="M877.134,947.409a.469.469,0,0,1,.469-.47h9.736a.469.469,0,0,1,.469.47v.717a.469.469,0,0,1-.469.469h-8.3v6.029h7.092a.485.485,0,0,1,.469.47v.716a.468.468,0,0,1-.469.47h-7.092v6.3h8.3a.469.469,0,0,1,.469.469v.716a.469.469,0,0,1-.469.47H877.6a.469.469,0,0,1-.469-.47Z" transform="translate(-642.223 -946.692)" fill="#f0f1f1"/><path d="M902.99,947.409a.469.469,0,0,1,.469-.47h.964a.485.485,0,0,1,.469.47V962.58h7.116a.47.47,0,0,1,.47.469v.716a.47.47,0,0,1-.47.47h-8.549a.469.469,0,0,1-.469-.47Z" transform="translate(-653.444 -946.692)" fill="#f0f1f1"/><path d="M921.56,963.4l7.511-16.629a.444.444,0,0,1,.421-.272h.247a.447.447,0,0,1,.421.272l7.46,16.629a.435.435,0,0,1-.418.642h-.99a.451.451,0,0,1-.418-.272l-1.829-4.077h-8.772l-1.8,4.077a.451.451,0,0,1-.418.272h-.99A.436.436,0,0,1,921.56,963.4Zm11.736-5.238c-1.209-2.694-2.4-5.412-3.607-8.1h-.2l-3.608,8.1Z" transform="translate(-661.482 -946.502)" fill="#f0f1f1"/><path d="M954.749,947.409a.469.469,0,0,1,.469-.47h6.4A5.31,5.31,0,0,1,967,952.2a5.516,5.516,0,0,1-3.656,5.04l3.384,6.276a.467.467,0,0,1-.421.716h-1.259a.424.424,0,0,1-.4-.222l-3.286-6.548h-4.72v6.3a.485.485,0,0,1-.469.47h-.964a.469.469,0,0,1-.469-.47Zm6.744,8.426a3.546,3.546,0,1,0,0-7.092H956.7v7.092Z" transform="translate(-675.907 -946.692)" fill="#f0f1f1"/><path d="M983.619,947.409a.485.485,0,0,1,.469-.47h.988a.487.487,0,0,1,.471.47v16.357a.487.487,0,0,1-.471.47h-.988a.485.485,0,0,1-.469-.47Z" transform="translate(-688.437 -946.692)" fill="#f0f1f1"/><path d="M990.6,962.037l.52-.593c.394-.371.593-.2.839.074a3.505,3.505,0,0,0,2.4,1.31c1.483,0,3.014-1.087,3.014-3.707V947.409a.469.469,0,0,1,.469-.47h.964a.47.47,0,0,1,.47.47v11.663c0,3.434-2.076,5.411-4.967,5.411a4.743,4.743,0,0,1-3.756-1.828A.52.52,0,0,1,990.6,962.037Z" transform="translate(-691.409 -946.692)" fill="#f0f1f1"/><path d="M1009.4,963.4l7.511-16.629a.444.444,0,0,1,.421-.272h.247a.447.447,0,0,1,.421.272l7.462,16.629a.437.437,0,0,1-.421.642h-.99a.451.451,0,0,1-.418-.272L1021.8,959.7h-8.772l-1.8,4.077a.457.457,0,0,1-.421.272h-.99A.436.436,0,0,1,1009.4,963.4Zm11.736-5.238c-1.211-2.694-2.4-5.412-3.607-8.1h-.2l-3.608,8.1Z" transform="translate(-699.603 -946.502)" fill="#f0f1f1"/></g><path d="M701.229,510.065a63.23,63.23,0,1,0,63.222,63.222A63.228,63.228,0,0,0,701.229,510.065Zm-10.82,19.556c6.853,0,12.132,1.142,15.743,3.411,3.689,2.222,5.495,5.047,5.495,8.458a9.28,9.28,0,0,1-4.522,8.2c-3.025,2.053-7.193,3.226-12.657,3.627v.17c6.591.232,11.515,1.435,14.741,3.581a10.335,10.335,0,0,1,4.893,7.641,11.846,11.846,0,0,1,.046,1.312,13.645,13.645,0,0,1-.108,1.636,10.11,10.11,0,0,1-.741,2.84,11.118,11.118,0,0,1-1.589,2.547c-2.887,3.411-8.459,5.4-16.655,5.911.123-.355.2-.771.34-1.1a9.74,9.74,0,0,0,3.627-2.161,10.082,10.082,0,0,0,2.887-5.943,16.315,16.315,0,0,0,.34-2.994v-.71a12.9,12.9,0,0,0-.232-2.593,9.674,9.674,0,0,0-3.056-6.683,11.706,11.706,0,0,0-8.335-3.009v-.556a8.586,8.586,0,0,0,6.637-2.871c1.7-2.007,2.609-4.939,2.67-8.922,0-3.689-.864-6.452-2.624-8.381a8.892,8.892,0,0,0-6.9-2.887Zm-18.476,49.47v-.263q3.218-1.019,3.21-9.879v-29.11q0-8.775-3.21-9.863v-.355H686.38v39.637a25.571,25.571,0,0,0-2.994,2.639,24.811,24.811,0,0,0-4.754,7.193Zm30.407,37.862c-6.945-.494-12.579-3.041-16.917-7.579a23.106,23.106,0,0,1-6.251-13.49v-.015c-.155-1.806-.216-4.291-.216-4.291a27.56,27.56,0,0,1,1.59-9.647,19.79,19.79,0,0,1,1.188-2.84,20.345,20.345,0,0,1,3.751-5.2,5.814,5.814,0,0,1,.895-.849,15.924,15.924,0,0,1,2.824-2.377,24.235,24.235,0,0,1,10.141-4.028,4.5,4.5,0,0,1-.031,1.127,5.251,5.251,0,0,0-.649.463,13.3,13.3,0,0,0-1.312,1.173,22.382,22.382,0,0,0-5.418,10.542,28.083,28.083,0,0,0-.787,4.321,56.829,56.829,0,0,0-.417,7.317q0,10.974,3.118,17.457c2.053,4.245,4.939,6.745,8.489,7.424Zm21.733-7.517q-6.459,6.784-16.886,7.517v-.386a8.1,8.1,0,0,0,2.547-.911,13.843,13.843,0,0,0,5.943-6.575c2.1-4.291,3.118-10.079,3.118-17.457,0-7.3-1.018-13.151-3.118-17.441-.17-.34-.34-.695-.494-.972a12.7,12.7,0,0,0,1.575-4.538,23.15,23.15,0,0,1,7.316,5.217c4.306,4.554,6.452,10.434,6.452,17.735C730.525,598.94,728.379,604.852,724.073,609.436Z" transform="translate(-538.436 -491.702)" fill="#f0f1f1"/><path d="M772.638,560.182a24.735,24.735,0,0,1-.179,3.116c-.073.644-.159,1.326-.3,2.049-.166.716-.358,1.465-.6,2.228a22.077,22.077,0,0,1-.848,2.307,20.853,20.853,0,0,1-1.233,2.261,17.1,17.1,0,0,1-1.472,2.022,20.555,20.555,0,0,1-1.651,1.657,18.043,18.043,0,0,1-3.2,2.327,20.378,20.378,0,0,1-2.493,1.2c-.093.033-.172.066-.252.1a88.649,88.649,0,0,1-2.871,10.091c.146-.192.3-.391.457-.59.232-.3.451-.6.7-.9a20.751,20.751,0,0,1,1.591-1.784c.292-.292.59-.57.889-.849s.577-.537.869-.8c.59-.511,1.186-.982,1.783-1.419,1.22-.869,2.34-1.611,3.349-2.2s1.9-1.041,2.526-1.339,1-.437,1-.437a26.7,26.7,0,0,1-1.034,4.2,28.731,28.731,0,0,1-1.81,3.978,21.331,21.331,0,0,1-3.03,4,19.377,19.377,0,0,1-3.852,2.891,20.629,20.629,0,0,1-3.66,1.545,16.5,16.5,0,0,1-2.513.59c-.066.152-.133.311-.205.464a80.728,80.728,0,0,1-4.124,7.85c.106-.086.218-.172.331-.258.61-.471,1.28-.922,1.949-1.379a22.681,22.681,0,0,1,2.069-1.207c.7-.358,1.406-.676,2.062-.981a32.048,32.048,0,0,1,3.753-1.392q.428-.129.816-.238c.252-.073.5-.139.723-.206.457-.126.862-.226,1.194-.3.67-.152,1.067-.212,1.067-.212s-.145.418-.451,1.114a21.1,21.1,0,0,1-1.485,2.745c-.338.544-.716,1.127-1.141,1.717-.451.577-.948,1.167-1.491,1.757a21.557,21.557,0,0,1-1.751,1.711,21.832,21.832,0,0,1-2.076,1.5c-.364.225-.729.444-1.094.643-.179.093-.365.192-.544.285s-.378.166-.564.245a19.346,19.346,0,0,1-2.181.782c-.709.206-1.392.365-2.035.484a18.131,18.131,0,0,1-1.85.212,20.545,20.545,0,0,1-2.062.04,75.6,75.6,0,0,1-5.8,6.789c.577-.272,1.187-.53,1.823-.756.763-.285,1.558-.5,2.294-.71s1.486-.378,2.208-.51,1.426-.239,2.1-.318,1.286-.159,1.87-.206c1.16-.093,2.142-.113,2.831-.113s1.094.04,1.094.04-.239.371-.7.975c-.225.3-.511.663-.849,1.061a15.329,15.329,0,0,1-1.174,1.3c-.457.451-.968.921-1.518,1.4-.272.232-.564.47-.862.709-.146.12-.3.239-.451.358s-.325.218-.49.331a24.188,24.188,0,0,1-2.1,1.26c-.365.2-.743.384-1.127.557a12.081,12.081,0,0,1-1.207.464,18.283,18.283,0,0,1-2.407.65q-.588.12-1.154.2c-.384.046-.769.073-1.141.093a20.842,20.842,0,0,1-3.938-.179,16.141,16.141,0,0,1-1.863-.378,77.275,77.275,0,0,1-7.393,5.3,17.716,17.716,0,0,1,2.056-.332,24.766,24.766,0,0,1,4.654-.2,34.566,34.566,0,0,1,3.965.358c1.16.166,2.142.385,2.8.53s1.048.266,1.048.266-.08.079-.225.218-.358.358-.656.59a28.456,28.456,0,0,1-2.5,1.843c-.265.173-.544.351-.835.531s-.617.338-.935.5c-.65.332-1.346.656-2.075.955-.365.152-.736.305-1.121.431s-.789.239-1.2.345a21.791,21.791,0,0,1-2.493.484,14.462,14.462,0,0,1-2.5.087,18.965,18.965,0,0,1-2.294-.219c-.365-.059-.716-.119-1.054-.2s-.676-.173-1-.265c-.637-.186-1.227-.391-1.757-.6a17.237,17.237,0,0,1-1.923-.868,84.842,84.842,0,0,1-8.666,3.62c.829.013,1.691.053,2.559.126a23.107,23.107,0,0,1,2.374.352c.384.086.762.159,1.127.239s.729.165,1.081.259a34.132,34.132,0,0,1,3.812,1.259c1.088.411,1.983.809,2.6,1.107s.968.5.968.5-.371.232-1.035.59c-.331.179-.743.385-1.213.61s-1.021.418-1.625.636a20.952,20.952,0,0,1-4.191,1.088c-.782.119-1.6.205-2.426.252l-.623.02c-.212-.007-.425-.014-.643-.027-.424-.02-.855-.053-1.28-.1a19.344,19.344,0,0,1-2.454-.444,17.019,17.019,0,0,1-2.194-.756,19.548,19.548,0,0,1-3.481-1.863c-.676-.47-1.233-.921-1.677-1.3-.325.087-.65.173-.981.252-.166.033-9.64,1.8-19.546,4.734,5.045,1.909,9.6,4.124,12.452,6.59a1.462,1.462,0,1,1-1.916,2.208c-3.222-2.785-9-5.277-15.17-7.339-6.166,2.062-11.948,4.555-15.17,7.339a1.463,1.463,0,0,1-.955.358,1.462,1.462,0,0,1-.955-2.566c2.844-2.466,7.4-4.681,12.452-6.59-9.906-2.937-19.387-4.7-19.553-4.734-.325-.08-.65-.166-.975-.252-.444.378-1.007.829-1.678,1.3a19.568,19.568,0,0,1-3.48,1.863,17.111,17.111,0,0,1-2.2.756,19.234,19.234,0,0,1-2.447.444c-.431.046-.862.08-1.287.1-.212.013-.424.02-.636.027l-.63-.02c-.829-.047-1.644-.133-2.426-.252a20.936,20.936,0,0,1-4.19-1.088c-.6-.219-1.147-.424-1.625-.636s-.875-.431-1.213-.61c-.663-.358-1.035-.59-1.035-.59s.345-.2.968-.5,1.518-.7,2.605-1.107a34.033,34.033,0,0,1,3.806-1.259c.358-.094.716-.18,1.081-.259s.749-.153,1.134-.239a22.842,22.842,0,0,1,2.373-.352c.869-.073,1.724-.113,2.553-.126a86.253,86.253,0,0,1-8.666-3.614,19.03,19.03,0,0,1-1.917.862c-.53.212-1.12.418-1.763.6-.319.093-.65.186-.995.265s-.7.139-1.055.2a18.956,18.956,0,0,1-2.3.219,14.405,14.405,0,0,1-2.493-.087,21.607,21.607,0,0,1-2.5-.484c-.4-.106-.8-.219-1.193-.345s-.756-.279-1.127-.431c-.729-.3-1.419-.623-2.068-.955-.325-.166-.637-.338-.935-.5s-.577-.358-.842-.531a29.511,29.511,0,0,1-2.5-1.843,7.457,7.457,0,0,1-.65-.59c-.146-.139-.225-.218-.225-.218s.377-.113,1.048-.266,1.638-.365,2.8-.53a34.7,34.7,0,0,1,3.972-.358,24.768,24.768,0,0,1,4.654.2,19.634,19.634,0,0,1,2.042.325,75.835,75.835,0,0,1-7.38-5.3h-.006a16.458,16.458,0,0,1-1.863.378,20.812,20.812,0,0,1-3.938.179c-.371-.02-.749-.047-1.134-.093s-.763-.119-1.154-.2a18.657,18.657,0,0,1-2.413-.65,12.08,12.08,0,0,1-1.207-.464c-.384-.173-.756-.358-1.127-.557a24.093,24.093,0,0,1-2.1-1.26c-.16-.113-.325-.225-.484-.331l-.458-.358c-.3-.239-.583-.477-.862-.709-.55-.478-1.054-.948-1.511-1.4a15.487,15.487,0,0,1-1.181-1.3c-.331-.4-.616-.762-.849-1.061-.457-.6-.689-.975-.689-.975s.4-.033,1.087-.04,1.678.02,2.838.113c.583.047,1.193.126,1.863.206s1.379.179,2.1.318,1.465.305,2.208.51,1.532.425,2.294.71c.63.225,1.24.477,1.816.749a74.3,74.3,0,0,1-5.788-6.789,20.18,20.18,0,0,1-3.918-.245,20.616,20.616,0,0,1-2.029-.484,19.429,19.429,0,0,1-2.188-.782c-.186-.079-.371-.159-.564-.245s-.358-.193-.544-.285c-.365-.2-.729-.418-1.094-.643a17.087,17.087,0,0,1-3.826-3.216c-.537-.59-1.035-1.18-1.485-1.757-.424-.59-.809-1.173-1.147-1.717a21.113,21.113,0,0,1-1.485-2.745c-.3-.7-.444-1.114-.444-1.114s.391.059,1.061.212q.507.109,1.193.3l.73.206q.388.109.816.238a32.5,32.5,0,0,1,3.753,1.392c.65.305,1.359.623,2.055.981a22.706,22.706,0,0,1,2.069,1.207c.669.457,1.339.908,1.956,1.379.113.086.226.172.332.258a80.7,80.7,0,0,1-4.124-7.85c-.073-.153-.139-.305-.206-.457a17.585,17.585,0,0,1-2.519-.6,20.624,20.624,0,0,1-3.66-1.545,19.574,19.574,0,0,1-3.852-2.891,21.627,21.627,0,0,1-3.03-4,30.416,30.416,0,0,1-1.81-3.978,27.7,27.7,0,0,1-1.034-4.2s.378.145,1.007.437,1.512.743,2.52,1.339,2.135,1.332,3.348,2.2c.6.438,1.2.908,1.784,1.419q.447.388.876.8c.291.279.6.557.888.849a23.094,23.094,0,0,1,1.592,1.784c.245.3.457.6.7.9.159.2.3.4.45.59a88.708,88.708,0,0,1-2.864-10.091c-.08-.033-.159-.066-.252-.1a19.462,19.462,0,0,1-2.493-1.2,17.828,17.828,0,0,1-3.2-2.327,20.526,20.526,0,0,1-1.644-1.657,17.156,17.156,0,0,1-1.478-2.022,17.178,17.178,0,0,1-2.082-4.568c-.231-.762-.431-1.512-.59-2.228-.139-.723-.232-1.405-.305-2.049a24.477,24.477,0,0,1-.172-3.116c.02-.756.072-1.194.072-1.194s.325.219.862.65c.272.212.59.477.949.789s.782.67,1.22,1.068a32.884,32.884,0,0,1,2.785,2.891c.457.557.968,1.147,1.439,1.777a21.589,21.589,0,0,1,1.353,2c.219.351.4.7.6,1.047s.392.7.571,1.048c.352.69.657,1.379.921,2.049.066.186.139.364.212.544a95.3,95.3,0,0,1-1.014-11.4c-.053-.033-.106-.066-.159-.106-.279-.193-.61-.425-.981-.71s-.756-.623-1.18-1.014a21.015,21.015,0,0,1-2.633-2.977,14.637,14.637,0,0,1-1.22-1.976,19.77,19.77,0,0,1-1.035-2.3c-.145-.411-.3-.829-.4-1.24s-.2-.822-.285-1.24c-.166-.822-.279-1.644-.358-2.44a17.126,17.126,0,0,1-.067-2.307c.02-.73.06-1.426.119-2.069.027-.325.06-.63.1-.922s.093-.564.139-.822c.1-.517.2-.968.292-1.339.173-.743.312-1.16.312-1.16s.272.292.716.829,1.035,1.326,1.691,2.3c.637.968,1.419,2.135,2.108,3.441.352.65.69,1.333.994,2.049.325.723.65,1.472.915,2.248a22.083,22.083,0,0,1,.663,2.3c.14.524.265,1.041.365,1.545a86.843,86.843,0,0,1,1.22-10.622,19.215,19.215,0,0,1-1.405-1.79,17.985,17.985,0,0,1-1.923-3.494,20.9,20.9,0,0,1-.763-2.208c-.113-.391-.219-.8-.312-1.213s-.139-.829-.192-1.26a21.159,21.159,0,0,1-.133-2.579c.007-.418.007-.842.046-1.253s.093-.809.146-1.207a22.3,22.3,0,0,1,1.008-4.257c.424-1.213.849-2.208,1.167-2.9.345-.676.584-1.055.584-1.055s.2.345.5.968.73,1.525,1.174,2.626a33,33,0,0,1,1.273,3.819,25.557,25.557,0,0,1,.921,4.621c.086.7.146,1.373.166,2.029a51,51,0,0,1,3.037-7.466c.132-.266.272-.53.411-.8-.086-.152-.172-.325-.265-.5-.106-.205-.212-.431-.325-.676s-.212-.484-.319-.756a21.277,21.277,0,0,1-1.1-3.832,14.439,14.439,0,0,1-.259-2.321,18.062,18.062,0,0,1,.053-2.526,14.851,14.851,0,0,1,.431-2.533c.205-.816.444-1.611.716-2.367a26.036,26.036,0,0,1,1.91-3.918,16.508,16.508,0,0,1,.968-1.465c.305-.424.59-.789.822-1.081.47-.6.769-.915.769-.915s.126.385.3,1.061.378,1.651.557,2.818c.093.584.172,1.207.245,1.883s.146,1.392.186,2.135.053,1.512.033,2.294c-.02.391-.033.789-.053,1.193s-.046.816-.086,1.227a23.332,23.332,0,0,1-.378,2.367c-.073.352-.139.7-.212,1.035,1.8-2.8,3.706-5.464,5.675-7.963-.013-.033-.02-.066-.033-.1a20.388,20.388,0,0,1-.644-2.705,16.98,16.98,0,0,1-.225-1.87,20.375,20.375,0,0,1-.02-2.115,21.516,21.516,0,0,1,.232-2.334,16.441,16.441,0,0,1,.617-2.44,22.237,22.237,0,0,1,.954-2.394,21.971,21.971,0,0,1,1.227-2.122c.438-.663.882-1.3,1.34-1.87s.928-1.074,1.372-1.532a19.56,19.56,0,0,1,2.287-2.108c.6-.457.962-.7.962-.7s.033.4.046,1.094-.006,1.671-.066,2.865a32.14,32.14,0,0,1-.451,4.017c-.06.365-.133.73-.212,1.1s-.153.769-.246,1.154a22.113,22.113,0,0,1-.67,2.321c-.133.391-.285.756-.424,1.134s-.285.749-.438,1.107c-.3.7-.629,1.359-.968,1.983,2.592-2.891,5.212-5.523,7.751-7.883a17.584,17.584,0,0,1-.013-2.546,20.294,20.294,0,0,1,.61-3.952,19.519,19.519,0,0,1,1.863-4.475,20.714,20.714,0,0,1,1.472-2.089c.258-.332.53-.65.8-.961.139-.153.279-.3.411-.451s.292-.278.431-.418c.577-.544,1.154-1.048,1.724-1.505a17.157,17.157,0,0,1,1.664-1.213,30.193,30.193,0,0,1,2.692-1.538c.339-.166.61-.3.8-.371s.292-.113.292-.113-.013.1-.04.278-.086.458-.152.8c-.132.689-.345,1.664-.676,2.8-.159.564-.352,1.173-.57,1.81-.113.318-.232.643-.358.968s-.252.683-.391,1.028c-.272.689-.584,1.4-.928,2.1s-.756,1.379-1.167,2.108c-.205.338-.411.663-.616.981,2.426-1.929,4.608-3.527,6.4-4.774.02-.027.04-.06.066-.093a20.292,20.292,0,0,1,2.692-2.911q.418-.368.875-.736a11.149,11.149,0,0,1,.962-.7,19.465,19.465,0,0,1,2.175-1.233,18.148,18.148,0,0,1,4.754-1.512c.391-.072.776-.132,1.154-.192s.749-.073,1.108-.1c.729-.04,1.412-.059,2.055-.053s1.22.014,1.744.066.968.119,1.339.173c.743.119,1.167.219,1.167.219s-.266.3-.756.789-1.207,1.167-2.1,1.909a36.954,36.954,0,0,1-3.2,2.447c-.61.418-1.253.8-1.936,1.193a22.942,22.942,0,0,1-2.128,1.128c-.371.172-.743.325-1.107.47-.186.066-.365.139-.55.206s-.365.139-.544.212c-.729.272-1.439.5-2.128.69-1.379.345-2.665.663-3.779.829-.338.059-.663.1-.968.132-2.215,1.565-4.94,3.613-7.943,6.126a15.283,15.283,0,0,1,3.992-.822,12.791,12.791,0,0,1,2.26.053,19.489,19.489,0,0,1,2.089.345c.331.08.643.159.954.252s.623.206.915.312c.583.219,1.121.451,1.611.683a19.116,19.116,0,0,1,2.268,1.273c.265.172.47.325.61.431s.212.166.212.166-.285.159-.789.444a18,18,0,0,1-2.141.975c-.464.159-.942.378-1.472.55a17.568,17.568,0,0,1-1.711.5c-.159.033-.312.066-.471.106s-.3.073-.464.113c-.311.073-.637.139-.975.192a15.947,15.947,0,0,1-2.1.232,21.319,21.319,0,0,1-4.23-.113,31.705,31.705,0,0,1-3.673-.584c-.8-.173-1.512-.365-2.082-.524-1.923,1.79-3.892,3.733-5.861,5.835.153-.066.312-.132.471-.2.352-.139.729-.252,1.1-.358a16.176,16.176,0,0,1,2.215-.457c.358-.046.709-.087,1.061-.106s.709-.02,1.048-.02a19.216,19.216,0,0,1,3.66.431,17.571,17.571,0,0,1,2.513.763c.6.225.928.391.928.391s-.232.238-.676.6c-.457.345-1.074.882-1.876,1.439-.4.279-.849.563-1.339.842-.485.3-.988.6-1.545.889s-1.154.55-1.79.8a16.453,16.453,0,0,1-1.975.717c-.7.212-1.433.358-2.109.5s-1.379.252-2.049.332-1.333.126-1.963.159-1.207.06-1.764.066c-.656.013-1.253,0-1.764-.02-1.836,2.3-3.613,4.734-5.3,7.3a18.82,18.82,0,0,1,1.883-1.227q.507-.278,1.014-.517c.172-.079.338-.159.511-.232s.352-.132.524-.192a17.489,17.489,0,0,1,2.049-.577,16.393,16.393,0,0,1,1.91-.318c.616-.059,1.207-.08,1.75-.08a20.129,20.129,0,0,1,2.606.179c.63.093.988.172.988.172a8.856,8.856,0,0,1-.517.749c-.179.232-.391.5-.649.809s-.577.63-.889,1a20.932,20.932,0,0,1-2.44,2.327,18.925,18.925,0,0,1-1.538,1.2c-.564.384-1.181.749-1.8,1.121a18.882,18.882,0,0,1-1.936.968c-.656.278-1.319.524-1.943.762a30.178,30.178,0,0,1-3.574,1.054c-.55.12-1.048.226-1.485.319-.365.079-.7.139-.988.186-.113.212-.219.418-.325.63a50.6,50.6,0,0,0-3.4,8.765,17.227,17.227,0,0,1,2.453-2.845,16.6,16.6,0,0,1,3.66-2.4,18.929,18.929,0,0,1,3.508-1.194,17.186,17.186,0,0,1,2.573-.4c.637-.053,1.014-.046,1.014-.046s-.12.311-.371.835a18.731,18.731,0,0,1-1.074,2.115,29.716,29.716,0,0,1-1.87,2.805c-.193.252-.391.5-.61.749s-.418.511-.643.762a18.672,18.672,0,0,1-1.5,1.5c-.279.238-.564.477-.849.7s-.55.451-.829.663c-.564.431-1.141.822-1.717,1.187-1.173.716-2.267,1.333-3.256,1.83-.835.418-1.584.743-2.168.981a83.283,83.283,0,0,0-1.054,8.56,17.647,17.647,0,0,1,1.128-1.823,13.856,13.856,0,0,1,1.439-1.744,18.474,18.474,0,0,1,1.6-1.419,16.625,16.625,0,0,1,3.129-1.949,18.653,18.653,0,0,1,2.44-.968c.6-.193.968-.279.968-.279s-.04.338-.159.9c-.06.285-.139.623-.246,1.008-.06.192-.12.4-.179.61s-.113.444-.186.683c-.139.464-.305.975-.511,1.5s-.458,1.081-.7,1.658a18.216,18.216,0,0,1-.889,1.757c-.172.3-.352.6-.55.9s-.378.6-.59.9a18.925,18.925,0,0,1-1.332,1.717c-.464.537-.975,1.054-1.426,1.538a30.618,30.618,0,0,1-2.778,2.513c-.431.352-.848.663-1.214.935-.053.04-.106.079-.152.12q.089,4,.543,8.122c.007-.027.02-.059.027-.086a10.012,10.012,0,0,1,.418-1.087,17.233,17.233,0,0,1,1.054-2.029,13.294,13.294,0,0,1,1.233-1.73,19.359,19.359,0,0,1,2.646-2.606q.627-.507,1.173-.875c.371-.245.71-.451.988-.616a9.75,9.75,0,0,1,.9-.478s.027.332.02.915.02,1.4-.073,2.38c-.04.491-.113,1.028-.2,1.585-.067.564-.159,1.153-.292,1.77a19.8,19.8,0,0,1-.524,1.916,16.867,16.867,0,0,1-.7,2c-.279.676-.623,1.339-.955,1.969s-.67,1.233-1.034,1.81c-.717,1.154-1.525,2.2-2.181,3.063-.358.464-.7.882-1.015,1.246.6,2.758,1.319,5.516,2.2,8.261.04-.537.106-1.081.192-1.624.073-.385.139-.756.238-1.121s.219-.736.345-1.081a18.041,18.041,0,0,1,.835-1.97,16.545,16.545,0,0,1,2.016-3.123,19.239,19.239,0,0,1,1.777-1.929c.464-.437.749-.663.749-.663a15.56,15.56,0,0,1,.663,3.222,18.992,18.992,0,0,1,.252,3.375,19.493,19.493,0,0,1-.332,4.084,21.7,21.7,0,0,1-1.114,4.131,30.7,30.7,0,0,1-1.432,3.468c-.338.7-.663,1.313-.935,1.816.119.272.239.544.365.816a78.45,78.45,0,0,0,4.071,7.731c-.06-.225-.113-.464-.159-.7a12.66,12.66,0,0,1-.278-2.281,16.232,16.232,0,0,1,.086-2.287,12.672,12.672,0,0,1,.378-2.1,19.417,19.417,0,0,1,1.273-3.494c.119-.239.232-.471.345-.689s.246-.424.358-.617c.232-.384.444-.716.623-.981.365-.53.6-.822.6-.822s.166.292.411.815c.225.531.6,1.253.942,2.175.165.464.338.969.49,1.519.18.53.345,1.107.491,1.724s.246,1.266.345,1.943a17.562,17.562,0,0,1,.226,2.115c.013.371.02.743.013,1.107s-.02.729-.027,1.087c-.026.709-.086,1.406-.172,2.089s-.186,1.339-.3,1.969-.225,1.2-.352,1.744c-.225,1.007-.464,1.87-.663,2.5a72.7,72.7,0,0,0,6.822,7.751,17.346,17.346,0,0,1-.809-1.551,17.642,17.642,0,0,1-.749-2.181,13.358,13.358,0,0,1-.425-2.235,18.4,18.4,0,0,1-.08-2.148,19.59,19.59,0,0,1,.153-1.956c.079-.616.212-1.207.331-1.737a20.09,20.09,0,0,1,.789-2.526c.232-.6.4-.928.4-.928a8.843,8.843,0,0,1,.6.689c.179.225.392.5.624.829s.47.71.756,1.108.557.848.835,1.346c.139.245.279.5.411.775.066.133.133.272.2.412s.145.271.212.411a16.876,16.876,0,0,1,.789,1.8c.119.318.232.657.338.995s.225.676.318,1.034a17.206,17.206,0,0,1,.471,2.129c.059.358.113.716.153,1.067s.092.683.132,1.021a31.776,31.776,0,0,1,.159,3.772c-.014,1.127-.046,2.049-.106,2.712a.1.1,0,0,1-.006.046,74.267,74.267,0,0,0,8.148,5.675l-.238-.278q-.348-.427-.676-.875a17.311,17.311,0,0,1-1.227-1.93,17.035,17.035,0,0,1-1.439-4.17,18.772,18.772,0,0,1-.312-3.726,17.034,17.034,0,0,1,.212-2.626c.106-.637.2-1.008.2-1.008l.186.146c.126.086.3.239.531.411a18.244,18.244,0,0,1,1.777,1.565,23.66,23.66,0,0,1,4.488,5.927c.332.676.657,1.306.922,1.969s.517,1.32.729,1.976c.1.332.2.656.292.975s.186.623.265.921c.166.6.3,1.187.424,1.738.219,1,.365,1.882.451,2.539a84.551,84.551,0,0,0,8.891,3.647,13.328,13.328,0,0,1-2.433-2.288,17.291,17.291,0,0,1-1.326-1.836,10.352,10.352,0,0,1-.537-.948c-.159-.325-.3-.643-.444-.962a19.186,19.186,0,0,1-1.134-3.527,20.622,20.622,0,0,1-.345-2.639c-.04-.643-.026-1.021-.026-1.021s.3.12.822.378c.252.126.557.285.9.484s.743.4,1.16.65a31.876,31.876,0,0,1,2.745,1.936,17.458,17.458,0,0,1,1.465,1.307l.365.371.371.365c.245.252.484.517.723.8a19.425,19.425,0,0,1,1.319,1.737c.411.59.8,1.154,1.147,1.744a32.723,32.723,0,0,1,1.744,3.342c.444.928.782,1.757,1.014,2.367.212.059.431.113.643.166a201.772,201.772,0,0,1,23.564,5.961,201.688,201.688,0,0,1,23.57-5.961c.212-.053.424-.106.637-.166.232-.61.577-1.439,1.014-2.367a34.2,34.2,0,0,1,1.744-3.342c.352-.59.743-1.153,1.147-1.744A19.351,19.351,0,0,1,705,628.8c.238-.278.484-.544.729-.8l.365-.365.365-.371c.49-.484.981-.915,1.465-1.307a31.876,31.876,0,0,1,2.745-1.936c.418-.252.816-.457,1.16-.65s.65-.358.909-.484c.511-.259.822-.378.822-.378s.007.378-.033,1.021a20.457,20.457,0,0,1-.345,2.639,18.731,18.731,0,0,1-1.134,3.527c-.133.318-.285.637-.444.962a10.291,10.291,0,0,1-.53.948,17.3,17.3,0,0,1-1.333,1.836,13.334,13.334,0,0,1-2.433,2.288,84.651,84.651,0,0,0,8.9-3.654c.093-.656.232-1.532.444-2.532.119-.551.258-1.134.424-1.738.086-.3.172-.609.272-.921s.186-.643.292-.975c.205-.656.45-1.319.722-1.976s.6-1.293.922-1.969a23.83,23.83,0,0,1,4.5-5.927,17.484,17.484,0,0,1,1.777-1.565c.232-.172.4-.325.524-.411s.192-.146.192-.146.093.371.2,1.008a19.229,19.229,0,0,1-.106,6.352,17.059,17.059,0,0,1-1.438,4.17,17.349,17.349,0,0,1-1.22,1.93c-.225.3-.451.59-.683.875-.072.093-.152.186-.238.278a74.357,74.357,0,0,0,8.155-5.675.1.1,0,0,1-.006-.046c-.06-.663-.093-1.585-.113-2.712a31.856,31.856,0,0,1,.166-3.772c.033-.339.08-.677.126-1.021s.093-.71.152-1.067a19.964,19.964,0,0,1,.471-2.129c.1-.358.218-.689.318-1.034s.219-.676.339-.995a17.977,17.977,0,0,1,.789-1.8c.073-.139.145-.279.212-.411s.133-.279.2-.412q.209-.407.418-.775c.279-.5.557-.942.836-1.346s.517-.783.749-1.108.444-.6.623-.829c.365-.451.6-.689.6-.689s.166.332.4.928a19.978,19.978,0,0,1,.789,2.526,15.361,15.361,0,0,1,.331,1.737,19.463,19.463,0,0,1,.153,1.956,19.98,19.98,0,0,1-.073,2.148,13.436,13.436,0,0,1-.431,2.235,16.671,16.671,0,0,1-.749,2.181,17.142,17.142,0,0,1-.8,1.551,72.416,72.416,0,0,0,6.816-7.744c-.192-.63-.431-1.492-.663-2.506-.126-.544-.232-1.121-.345-1.744s-.225-1.293-.312-1.969-.139-1.379-.165-2.089c-.007-.358-.02-.716-.027-1.087s-.007-.736.013-1.107a17.526,17.526,0,0,1,.219-2.115c.1-.676.206-1.333.352-1.943a17.31,17.31,0,0,1,.49-1.724c.153-.55.319-1.055.491-1.519.332-.921.716-1.644.942-2.175s.411-.815.411-.815.239.292.6.822c.186.265.4.6.63.981.113.193.232.4.352.617s.232.451.345.689a19.945,19.945,0,0,1,1.28,3.494,13.336,13.336,0,0,1,.377,2.1,18.439,18.439,0,0,1,.087,2.287,12.163,12.163,0,0,1-.285,2.281c-.046.232-.1.457-.152.683a78.241,78.241,0,0,0,4.065-7.718c.126-.272.245-.543.365-.816-.272-.5-.6-1.12-.935-1.816a30.7,30.7,0,0,1-1.425-3.468,21.217,21.217,0,0,1-1.114-4.131,18.622,18.622,0,0,1-.332-4.084,18.953,18.953,0,0,1,.252-3.375,15.853,15.853,0,0,1,.657-3.222s.291.225.749.663a19.253,19.253,0,0,1,1.777,1.929,16.217,16.217,0,0,1,2.016,3.123,16.815,16.815,0,0,1,.835,1.97c.126.345.238.709.345,1.081s.172.736.239,1.121c.093.536.159,1.08.2,1.611.868-2.738,1.6-5.5,2.188-8.248-.312-.364-.657-.782-1.014-1.246-.657-.862-1.466-1.91-2.181-3.063-.358-.577-.71-1.18-1.035-1.81s-.67-1.293-.955-1.969a18.175,18.175,0,0,1-.7-2c-.205-.657-.384-1.3-.517-1.916a16.969,16.969,0,0,1-.292-1.77c-.086-.557-.166-1.094-.205-1.585a22.821,22.821,0,0,1-.066-2.38c-.007-.584.02-.915.02-.915s.338.153.895.478c.279.166.61.371.982.616s.756.537,1.173.875a19.388,19.388,0,0,1,2.652,2.606,13.287,13.287,0,0,1,1.233,1.73,17.127,17.127,0,0,1,1.048,2.029,11.549,11.549,0,0,1,.425,1.087c.006.027.013.047.02.073q.458-4.108.543-8.109c-.053-.04-.1-.08-.152-.12-.358-.272-.782-.583-1.214-.935a30.607,30.607,0,0,1-2.771-2.513c-.458-.484-.968-1-1.433-1.538a18.925,18.925,0,0,1-1.332-1.717c-.212-.305-.385-.6-.59-.9s-.377-.6-.55-.9a18.249,18.249,0,0,1-.882-1.757c-.239-.577-.5-1.127-.7-1.658s-.371-1.034-.511-1.5c-.066-.239-.126-.464-.186-.683s-.119-.418-.172-.61c-.106-.385-.186-.723-.246-1.008-.119-.563-.159-.9-.159-.9s.358.086.968.279a19.325,19.325,0,0,1,2.44.968,16.787,16.787,0,0,1,3.123,1.949,18.526,18.526,0,0,1,1.611,1.419,14.467,14.467,0,0,1,1.439,1.744,18.836,18.836,0,0,1,1.121,1.823,83.215,83.215,0,0,0-1.054-8.56c-.583-.238-1.332-.563-2.162-.981-.988-.5-2.082-1.114-3.255-1.83-.577-.365-1.16-.756-1.724-1.187-.279-.212-.557-.431-.829-.663s-.57-.464-.842-.7a17.7,17.7,0,0,1-1.5-1.5c-.232-.252-.425-.517-.643-.762s-.424-.5-.617-.749a31.109,31.109,0,0,1-1.87-2.805,18.476,18.476,0,0,1-1.067-2.115c-.252-.524-.371-.835-.371-.835s.371-.007,1.014.046a17.451,17.451,0,0,1,2.572.4,19.267,19.267,0,0,1,3.508,1.194,16.907,16.907,0,0,1,3.66,2.4,17.7,17.7,0,0,1,2.44,2.831,50.667,50.667,0,0,0-3.395-8.752c-.106-.212-.212-.418-.325-.63-.285-.046-.616-.106-.988-.186-.437-.093-.935-.2-1.479-.319a29.909,29.909,0,0,1-3.58-1.054c-.616-.239-1.286-.484-1.943-.762a18.135,18.135,0,0,1-1.93-.968c-.616-.371-1.24-.736-1.8-1.121a19.081,19.081,0,0,1-1.545-1.2,22.039,22.039,0,0,1-2.44-2.327c-.311-.371-.63-.7-.888-1s-.471-.577-.644-.809c-.345-.457-.524-.749-.524-.749s.365-.079.988-.172a20.249,20.249,0,0,1,2.613-.179c.537,0,1.134.02,1.743.08a16.517,16.517,0,0,1,1.917.318,17.392,17.392,0,0,1,2.042.577c.179.06.351.126.53.192s.338.153.5.232q.508.239,1.014.517a17.394,17.394,0,0,1,1.9,1.24c-1.684-2.573-3.468-5.012-5.3-7.313-.517.02-1.113.033-1.77.02-.55-.007-1.128-.04-1.758-.066s-1.293-.087-1.962-.159-1.359-.186-2.049-.332-1.412-.292-2.108-.5a16.064,16.064,0,0,1-1.975-.717c-.637-.252-1.24-.517-1.8-.8s-1.061-.59-1.538-.889c-.49-.278-.941-.563-1.339-.842-.8-.557-1.419-1.094-1.876-1.439-.444-.365-.683-.6-.683-.6s.332-.166.935-.391a17.062,17.062,0,0,1,2.513-.763,19.072,19.072,0,0,1,3.653-.431c.345,0,.7,0,1.048.02s.709.06,1.068.106a16.6,16.6,0,0,1,2.215.457,11.036,11.036,0,0,1,1.094.358c.153.06.312.126.464.192-1.962-2.1-3.931-4.044-5.854-5.828-.57.16-1.28.352-2.082.524a31.615,31.615,0,0,1-3.667.584,21.389,21.389,0,0,1-4.237.113,15.947,15.947,0,0,1-2.1-.232c-.332-.053-.657-.119-.975-.192-.152-.04-.312-.079-.464-.113s-.312-.073-.464-.106a17.507,17.507,0,0,1-1.71-.5c-.537-.173-1.015-.391-1.472-.55a17.666,17.666,0,0,1-2.148-.975c-.5-.285-.789-.444-.789-.444s.073-.059.212-.166.352-.259.61-.431a19.764,19.764,0,0,1,2.274-1.273c.484-.232,1.021-.464,1.611-.683.292-.106.59-.212.908-.312s.63-.172.961-.252a19.362,19.362,0,0,1,2.082-.345,12.808,12.808,0,0,1,2.261-.053,15.663,15.663,0,0,1,4,.822c-3-2.506-5.735-4.561-7.949-6.126-.305-.033-.63-.073-.975-.132-1.114-.166-2.4-.484-3.779-.829-.689-.186-1.4-.418-2.121-.69-.186-.072-.365-.139-.551-.212s-.364-.14-.543-.206c-.371-.145-.743-.3-1.114-.47A23.821,23.821,0,0,1,707.25,485c-.676-.4-1.32-.775-1.936-1.193a36.75,36.75,0,0,1-3.2-2.447c-.9-.743-1.618-1.419-2.108-1.909s-.756-.789-.756-.789.424-.1,1.174-.219c.371-.053.822-.119,1.339-.173s1.107-.059,1.744-.066,1.326.014,2.049.053c.364.027.729.046,1.107.1s.769.119,1.153.192a17.991,17.991,0,0,1,4.754,1.512,19.469,19.469,0,0,1,2.175,1.233,10.166,10.166,0,0,1,.962.7q.458.368.875.736a20.4,20.4,0,0,1,2.7,2.911.885.885,0,0,1,.066.1c1.79,1.246,3.971,2.837,6.391,4.767-.206-.318-.411-.643-.616-.981-.411-.729-.816-1.4-1.16-2.108s-.663-1.412-.935-2.1c-.139-.345-.265-.7-.391-1.028s-.245-.65-.351-.968c-.225-.637-.411-1.246-.577-1.81-.325-1.14-.544-2.115-.676-2.8-.066-.345-.113-.617-.145-.8s-.047-.278-.047-.278.106.04.292.113.457.205.8.371a30.083,30.083,0,0,1,2.7,1.538,16.307,16.307,0,0,1,1.658,1.213c.57.457,1.154.961,1.724,1.505.146.139.285.279.431.418s.279.3.411.451c.278.311.544.629.809.961a20.683,20.683,0,0,1,1.472,2.089,19.785,19.785,0,0,1,1.856,4.475,20.336,20.336,0,0,1,.616,3.952,18.438,18.438,0,0,1-.02,2.546c2.54,2.353,5.159,4.986,7.751,7.876-.338-.616-.663-1.273-.962-1.976-.159-.358-.305-.729-.444-1.107s-.292-.743-.424-1.134a22.142,22.142,0,0,1-.669-2.321c-.093-.384-.173-.769-.246-1.154s-.152-.736-.212-1.1a33.495,33.495,0,0,1-.451-4.017c-.06-1.194-.086-2.162-.066-2.865s.046-1.094.046-1.094.365.246.961.7a19.07,19.07,0,0,1,2.288,2.108c.444.457.908.975,1.379,1.532s.895,1.207,1.333,1.87A23.383,23.383,0,0,1,745.1,496.7a22.089,22.089,0,0,1,.955,2.394,15.6,15.6,0,0,1,.61,2.44,21.35,21.35,0,0,1,.232,2.334,20.136,20.136,0,0,1-.014,2.115,18.508,18.508,0,0,1-.225,1.87,20.123,20.123,0,0,1-.65,2.705c-.013.033-.02.067-.033.093,1.976,2.506,3.885,5.159,5.682,7.97-.073-.338-.139-.683-.212-1.035a21.577,21.577,0,0,1-.378-2.367c-.046-.411-.073-.822-.093-1.227s-.033-.8-.046-1.193c-.027-.782-.013-1.551.026-2.294s.106-1.459.186-2.135.153-1.3.245-1.883c.179-1.167.392-2.135.564-2.818s.292-1.061.292-1.061.3.319.769.915c.239.292.517.656.822,1.081a16.452,16.452,0,0,1,.975,1.465,27.415,27.415,0,0,1,1.91,3.918c.265.756.511,1.551.709,2.367a14.854,14.854,0,0,1,.438,2.533,20.271,20.271,0,0,1,.053,2.526,15.244,15.244,0,0,1-.259,2.321,21.2,21.2,0,0,1-1.107,3.832c-.106.272-.212.523-.312.756s-.225.471-.331.676q-.13.268-.259.5c.139.265.272.531.411.8a51.288,51.288,0,0,1,3.037,7.485,20.271,20.271,0,0,1,.166-2.049,25,25,0,0,1,.915-4.621,32.97,32.97,0,0,1,1.28-3.819c.438-1.1.875-2.009,1.167-2.626s.5-.968.5-.968.232.378.577,1.055a30.848,30.848,0,0,1,1.167,2.9,21.839,21.839,0,0,1,1.008,4.257c.059.4.106.8.145,1.207s.046.835.053,1.253a22.619,22.619,0,0,1-.139,2.579c-.053.431-.106.849-.192,1.26s-.193.822-.305,1.213a21,21,0,0,1-.769,2.208,18.024,18.024,0,0,1-1.923,3.494,19.586,19.586,0,0,1-1.4,1.8,88.048,88.048,0,0,1,1.213,10.615c.1-.5.225-1.021.365-1.545a22.024,22.024,0,0,1,.663-2.3c.265-.776.6-1.525.915-2.248s.643-1.4.995-2.049c.689-1.306,1.478-2.473,2.108-3.441.657-.975,1.259-1.757,1.7-2.3s.716-.829.716-.829.132.418.311,1.16c.087.371.186.822.285,1.339.046.259.106.531.146.822s.066.6.093.922c.059.643.106,1.339.126,2.069a16.961,16.961,0,0,1-.073,2.307,22.893,22.893,0,0,1-.358,2.44c-.08.418-.172.829-.285,1.24a12.813,12.813,0,0,1-.4,1.24,20.982,20.982,0,0,1-1.028,2.3,15.355,15.355,0,0,1-1.22,1.976,20.6,20.6,0,0,1-2.639,2.977c-.418.391-.809.723-1.173,1.014s-.7.517-.981.71c-.06.039-.113.073-.166.106a95.253,95.253,0,0,1-1.014,11.4c.073-.18.146-.358.212-.544a22.288,22.288,0,0,1,.928-2.049c.172-.345.365-.7.564-1.048s.391-.7.6-1.047a22.787,22.787,0,0,1,1.352-2c.471-.63.988-1.22,1.446-1.777a31.091,31.091,0,0,1,2.785-2.891c.431-.4.849-.756,1.214-1.068s.676-.577.948-.789c.537-.431.868-.65.868-.65S772.611,559.425,772.638,560.182Z" transform="translate(-512.62 -477.621)" fill="#f0f1f1"/></svg>